<?xml version="1.0" encoding="UTF-8"?>
<svg id="Layer_1" data-name="Layer 1" xmlns="http://www.w3.org/2000/svg" xmlns:xlink="http://www.w3.org/1999/xlink" viewBox="0 0 605.33 188.33">
  <defs>
    <style>
      .cls-1 {
        fill: url(#linear-gradient);
      }
    </style>
    <linearGradient id="linear-gradient" x1="11.27" y1="90.26" x2="176.3" y2="90.26" gradientUnits="userSpaceOnUse">
      <stop offset="0" stop-color="#d6a93e"/>
      <stop offset=".28" stop-color="#a5842e"/>
      <stop offset=".58" stop-color="#d8aa3e"/>
      <stop offset=".85" stop-color="#9a7b2a"/>
    </linearGradient>
  </defs>
  <g>
    <path class="cls-1" d="m176.3,70.15l-57.14-7.45-26.26-51.29-19.99,42.05c5.16-3.76,10.13-7.39,15.09-11.01l.24.22c-3.78,5.17-7.56,10.35-11.51,15.76,11.1,1.72,22,3.41,32.89,5.1.02.08.03.16.05.25-10.87,1.68-21.73,3.37-32.93,5.1,3.97,5.43,7.79,10.67,11.62,15.92l-.18.2c-5.23-3.82-10.45-7.63-15.92-11.62-1.72,11.06-3.4,21.91-5.09,32.76-.09,0-.19.01-.28.02-1.68-10.83-3.36-21.65-5.08-32.78-5.39,3.94-10.61,7.74-15.82,11.54-.08-.07-.15-.14-.23-.2,3.8-5.2,7.6-10.41,11.56-15.82-3.92-.61-7.81-1.21-11.68-1.81l-34.36,5.51,41.85,39.61-8.91,56.93,50.6-27.56,51.39,26.06-10.57-56.64,40.67-40.82Z"/>
    <path d="m176.25,70.17c-.14-.02-57.13-7.2-57.26-7.22.06-.19-26.43-51.19-26.41-51.37,0,0,.66,0,.66,0l-19.92,42.08s-.67-.56-.67-.56l15.11-10.98.28-.2c.13.1.36.35.49.46,0,0,.27.25.27.25,0,0-.22.3-.22.3l-11.54,15.74s-.25-.6-.25-.6l32.88,5.15s.23.04.23.04c0,0,.04.22.04.22.03.13.07.44.1.57,0,0-.33.05-.33.05l-32.94,5.04s.17-.41.17-.41l11.59,15.94.11.15-.12.13c-.09.08-.23.26-.31.34,0,0-.16-.11-.16-.11l-15.9-11.66s.28-.12.28-.12l-5.09,32.76s-.02.14-.02.14h-.14s-.28.03-.28.03c0,0-.16.01-.16.01l-.03-.16-5.13-32.77s.36.15.36.15c0,0-15.8,11.56-15.8,11.56l-.17.12s-.16-.14-.16-.14c0,0-.23-.2-.23-.2,0,0-.18-.16-.18-.16,0,0,.14-.19.14-.19,0,0,11.53-15.84,11.53-15.84,0,0,.19.47.19.47l-11.69-1.78s.1,0,.1,0l-34.34,5.58s.21-.68.21-.68c.21.17,41.88,39.57,42.06,39.73-.1.28-8.84,56.88-8.93,57.17,0,0-.7-.49-.7-.49.24-.15,50.61-27.57,50.82-27.7.23.19,51.34,26.09,51.58,26.27,0,0-.57.42-.57.42-.03-.14-10.44-56.68-10.47-56.8.16-.06,40.76-40.64,40.9-40.72h0Zm.09-.03c-.05-.22-40.93,41.81-40.46,40.79,0,0,10.7,56.62,10.7,56.62,0,0,.15.79.15.79,0,0-.72-.36-.72-.36l-51.44-25.97h.46s-50.61,27.54-50.61,27.54l-.85.46s.15-.96.15-.96c.16.02,8.8-58.32,9.06-56.52,0,0-41.8-39.66-41.8-39.66,0,0-.59-.56-.59-.56l.8-.13,34.37-5.43s.07,0,.1,0c0,0,11.68,1.84,11.68,1.84,0,0,.48.08.48.08l-.29.39s-11.59,15.8-11.59,15.8l-.04-.35s.23.2.23.2c0,0-.33-.02-.33-.02l15.83-11.52s.3-.22.3-.22l.06.37s5.03,32.79,5.03,32.79l-.19-.15.28-.02s-.16.15-.16.15l5.09-32.76s.05-.29.05-.29l.24.17,15.95,11.59-.29.03.18-.2-.02.28-11.65-15.89s-.25-.34-.25-.34c0,0,.42-.07.42-.07l32.92-5.16-.27.38-.05-.25s.27.26.27.26l-32.9-5.04s-.62-.09-.62-.09l.37-.51,11.49-15.78.05.55s-.24-.22-.24-.22c0,0,.53.03.53.03l-15.08,11.04-1.44,1.05.77-1.61s20.06-42.01,20.06-42.01c0,0,.32-.68.32-.68l.34.67c-.23,0,26.8,51.95,25.96,51.2,0,0,57.15,7.7,57.15,7.7h0Z"/>
  </g>
  <g>
    <path d="m290.25,139.67v26.7h-4.38v-11.65h-12.21v11.65h-4.38v-26.7h4.38v10.91h12.21v-10.91h4.38Z"/>
    <path d="m317.04,166.87c-8.11,0-14.09-5.95-14.09-13.85s5.98-13.85,14.09-13.85,14.07,5.93,14.07,13.85-5.97,13.85-14.07,13.85h0Zm9.61-13.85c0-5.51-4.1-9.63-9.61-9.63s-9.63,4.16-9.63,9.63,4.12,9.64,9.63,9.64,9.61-4.12,9.61-9.64Z"/>
    <path d="m359.29,162.29v4.09h-15.48v-26.7h4.38v22.62h11.1Z"/>
    <path d="m394.08,153.01c0,7.74-5.7,13.36-13.54,13.36h-9.41v-26.7h9.41c7.86,0,13.54,5.61,13.54,13.34Zm-4.48,0c0-5.39-3.79-9.25-9.19-9.25h-4.91v18.53h4.91c5.4,0,9.19-3.9,9.19-9.28Z"/>
    <path d="m406.83,139.67h4.38v26.7h-4.38v-26.7Z"/>
    <path d="m447.48,139.67v26.7h-3.68l-13.87-19.07v19.07h-4.29v-26.7h3.96l13.59,18.75v-18.75h4.29Z"/>
    <path d="m487.35,152.81c-.11,8.19-5.63,14.06-13.48,14.06s-13.67-5.86-13.67-13.84,5.75-13.84,13.58-13.84c6.51,0,11.96,4.1,13.17,9.91h-4.52c-1.14-3.43-4.54-5.67-8.56-5.67-5.4,0-9.21,3.96-9.21,9.6s3.71,9.6,9.21,9.6c4.26,0,7.73-2.41,8.72-6.04h-9.52v-3.79h14.27Z"/>
    <path d="m498.24,157.96h4.45c0,2.98,2.46,4.63,5.59,4.63,2.84,0,5.27-1.49,5.27-3.95,0-2.66-2.86-3.33-6.08-4.08-4.09-.99-8.77-2.12-8.77-7.63,0-4.82,3.65-7.66,9.34-7.66s9.22,3.16,9.22,8.19h-4.33c0-2.66-2.2-4.11-4.99-4.11s-4.86,1.22-4.86,3.39c0,2.47,2.74,3.14,5.92,3.89,4.15,1.03,9.04,2.22,9.04,7.96,0,5.34-4.31,8.18-9.72,8.18-5.99,0-10.07-3.36-10.07-8.82Z"/>
  </g>
  <g>
    <path d="m213.41,128.52c-7.53-1.03-12.7-4.31-15.5-9.85l-.86-1.72c-.93-1.78-1.55-3.12-1.85-4.02-.3-.9-.45-2-.45-3.3,0-.84.15-1.91.45-3.21.12-.51.2-.86.23-1.04.24-1.27,1.1-2.97,2.58-5.11,1.48-2.14,3.12-4.07,4.93-5.79.9-.87,1.61-1.63,2.12-2.26.15-.15.25-.24.29-.27.04-.03.13-.05.25-.05.24,0,.36-.12.36-.36,0-.12.03-.18.09-.18h.04l.09.04c.3,0,.71-.28,1.22-.86,1.08-1.08,3.16-2.51,6.21-4.27,3.06-1.76,6.05-3.25,8.97-4.45,4.31-1.69,6.78-2.53,7.41-2.53.06,0,.11.04.14.14.06.12.14.18.23.18.15,0,.23-.12.23-.36,0-.15.09-.25.27-.32.18-.06.35-.09.5-.09l.04.04-.14.14c-.18.12-.27.2-.27.23.15,0,.44-.05.86-.16s.63-.19.63-.25l-1.63-.68c-3.13-1.23-5.38-2.17-6.73-2.8-2.89-1.17-5.05-2.2-6.46-3.07s-2.48-1.78-3.19-2.71-1.57-2.36-2.6-4.29c-.75-1.42-1.37-2.55-1.85-3.39v-2.76l.04-2.8c1.08-2.83,2.22-5.38,3.41-7.64s2.72-4.56,4.59-6.91c.69-.84,1.04-1.4,1.04-1.67l-.04-.05c-.06,0-.23.17-.5.5-.45.54-.75.81-.9.81l-.04-.04c0-.12.33-.5.99-1.15.66-.65,1.02-.97,1.08-.97l-.05.14c-.09.15-.14.24-.14.27s.01.05.04.05c.06,0,.13-.04.2-.11.07-.07.11-.16.11-.25,0-.06-.01-.11-.04-.14v-.09c0-.39,1.29-1.69,3.89-3.91,2.59-2.22,5.41-4.42,8.45-6.62,2.5-1.81,6.15-3.93,10.94-6.37s8.02-3.81,9.67-4.11l.59-.14c2.68-.81,4.19-1.22,4.52-1.22.09,0,.18.03.27.09h.05s.04-.02.04-.05l-.04-.14c0-.21.44-.38,1.31-.5.15,0,.29.03.41.09.03.03.06.04.09.04s.05-.01.05-.04c.06-.3,1.07-.45,3.03-.45.57,0,.86-.03.86-.09s-.2-.17-.59-.32c-.06-.03-.11-.05-.14-.05.75-.06,1.24-.18,1.45-.36.03-.06.07-.09.14-.09.09,0,.15.02.18.05.21,0,.48-.09.81-.27.15-.09.26-.14.32-.14.03,0,.07.02.14.04.03.03.06.05.09.05.09,0,.24-.07.45-.23l.14-.09s.04.02.04.05l-.04.27c-.09.21-.24.32-.45.32-.03,0-.11-.01-.23-.05-.12-.03-.21-.04-.27-.04-.12,0-.2.06-.23.18-.03.15-.14.23-.32.23-.03,0-.11-.01-.23-.05-.12-.03-.21-.04-.27-.04-.21,0-.36.09-.45.27,0,.09.12.14.36.14.09,0,.24-.01.45-.05.24-.03.42-.04.54-.04.3,0,.45.04.45.14,0,.06-.81.23-2.44.5-3.04.54-5.03.98-5.97,1.31-.21.09-.41.14-.59.14-.06,0-.09-.01-.09-.05l-.05-.04s-.08.03-.14.09c-.42.3-.83.47-1.22.5-.66.12-2.24.63-4.72,1.51-2.49.89-3.85,1.41-4.09,1.56-.15.15-.9.51-2.26,1.08-3.19,1.39-6.82,3.5-10.87,6.35-4.05,2.85-7.59,5.63-10.62,8.34-3.03,2.71-4.54,4.35-4.54,4.93.15,0,1.01-.78,2.58-2.35,10.27-10.09,22.61-17.22,37.02-21.38,2.56-.75,5.29-1.36,8.18-1.81.66-.12,1.11-.2,1.33-.25s.34-.11.34-.2-.06-.14-.18-.14c-.09,0-.17.02-.23.05h-.14c-.18,0-.27-.06-.27-.18,0-.18.42-.27,1.27-.27,1.27,0,2.92.17,4.95.52,2.03.35,3.43.7,4.18,1.06,1.08.54,1.92,1.48,2.51,2.8.59,1.33.88,2.83.88,4.52,0,1.87-.28,3.49-.84,4.86-.56,1.37-1.29,2.76-2.19,4.18-.51.81-.83,1.37-.95,1.67-.12.39-.26.59-.41.59-.21,0-.32-.44-.32-1.31,0-.69.36-1.93,1.08-3.71.48-1.14.72-1.87.72-2.17,0-.12-.03-.18-.09-.18l-.09.04c-.06.03-.11.05-.14.05-.06,0-.09-.06-.09-.18,0-.18.09-.38.27-.59.18-.27.27-.53.27-.77,0-.45-.11-.78-.34-.97-.23-.2-.44-.29-.66-.29-.09,0-.14.02-.14.05s.01.08.05.14l.04.09c0,.09-.09.14-.27.14-.21,0-.32-.12-.32-.36,0-.12.07-.21.23-.27.12-.06.18-.14.18-.23-.03-.03-.09-.05-.18-.05-.15,0-.31.05-.47.14-.17.09-.25.2-.25.32,0,.03.01.08.04.14l.05.09h-.05c-.21-.12-.32-.29-.32-.5l.04-.09c0-.09-.14-.14-.41-.14-.24,0-.47.12-.68.36-.06.09-.11.14-.14.14-.06,0-.17-.09-.32-.27-.12-.15-.2-.23-.23-.23-.12,0-.33.21-.63.63-.06.09-.11.15-.14.18-.06-.12-.14-.25-.23-.41-.15-.21-.24-.32-.27-.32-.03.3-.42.63-1.18,1l.36-1.22c-.72.78-1.46,1.22-2.22,1.31-.21.03-.32.09-.32.18,0,.12.13.25.38.38.25.14.44.2.56.2.03,0,.05-.01.05-.05l-.05-.09c-.03-.15-.04-.25-.04-.32,0-.09.04-.14.14-.14.06,0,.17.03.32.09.45.12.86.18,1.22.18.21,0,.32.03.32.09s-.06.18-.18.36c-.12.15-.18.24-.18.27.06,0,.23-.1.5-.32.3-.24.5-.36.59-.36.03,0,.07.03.14.09.12.12.27.18.45.18h.23c.12-.03.21-.05.27-.05.39,0,.59.08.59.23,0,.12-.17.18-.5.18-2.53,0-6.01.71-10.44,2.12-4.43,1.42-9.09,3.29-13.99,5.63-4.9,2.34-9.23,4.77-12.99,7.3-3.22,2.17-6.58,4.73-10.06,7.68-3.48,2.95-6.38,5.65-8.7,8.09s-3.48,4.05-3.48,4.84c0,.06.01.14.04.23.03.09.04.15.04.18,0,.09-.08.18-.23.27-.12.06-.18.12-.18.18,0,.09.15.24.45.45.03,0,.04-.05.04-.14,0-.39.25-.92.75-1.58.5-.66,1.15-1.45,1.97-2.35.57-.66.86-1.03.86-1.08,0-.03-.02-.08-.04-.14v-.04c0-.18.17-.33.5-.45.3-.12.48-.26.54-.41,0-.15,1.04-1.08,3.12-2.8,2.56-2.17,3.84-3.37,3.84-3.61h.04s.06.05.09.05c.15,0,.75-.45,1.81-1.36,1.29-1.08,2.05-1.63,2.26-1.63.06,0,.12.02.18.05h.09c.06,0,.09-.03.09-.09v-.09c-.03-.06-.05-.11-.05-.14,0-.15.08-.32.25-.52.17-.2.28-.29.34-.29l.04.05s-.02.08-.04.14c-.03.15-.05.26-.05.32.09,0,.54-.36,1.36-1.08,1.26-1.18,2-1.76,2.21-1.76l.04.05c.09,0,.21-.09.36-.27.21-.27.41-.41.59-.41s.27-.06.27-.18c0-.06-.02-.1-.05-.14-.03-.06-.04-.12-.04-.18l.04.05s.07.05.14.05c.15,0,.42-.17.81-.5.21-.18.35-.27.41-.27.03,0,.04.02.04.05s-.03.08-.09.14c0,.03.01.04.05.04.03,0,.15-.09.36-.27.6-.51,1.01-.77,1.22-.77.09,0,.33-.18.72-.54.45-.42.74-.63.86-.63s.18.11.18.32c0,.12-.17.32-.5.61-.33.29-.57.43-.72.43l-.09-.05-.45.36c-1.81,1.36-2.89,2.03-3.25,2.03-1.72,1.33-3.34,2.56-4.88,3.71-1.08.78-1.97,1.48-2.67,2.08l-.14.09c-6.48,5.75-10.29,9.51-11.44,11.25-.54.75-.81,1.25-.81,1.49,0,.18.47.48,1.4.9.39.18.59.29.59.32-.12,0-.48-.11-1.08-.32-.66-.24-1.07-.36-1.22-.36-.18,0-.27.09-.27.27,0,.27.71.67,2.12,1.2,1.42.53,3.75,1.33,7.01,2.42,4.37,1.48,8.06,2.78,11.07,3.91s5.54,2.25,7.59,3.37c1.29.72,2.28,1.08,2.94,1.08.24,0,.36-.07.36-.23,0-.18-.47-.56-1.4-1.13-.93-.57-2.32-1.29-4.16-2.15-1.84-.86-4.05-1.75-6.64-2.69-2.17-.78-3.25-1.2-3.25-1.26.3,0,1.4.32,3.3.97,1.9.65,3.98,1.47,6.24,2.46,2.26,1,4.55,2.19,6.87,3.57l4.88.05c2.71,0,5.44.19,8.18.56,2.74.38,4.99.84,6.76,1.38,1.76.54,2.64,1.08,2.64,1.63,0,.12.04.18.14.18.03,0,.07-.02.14-.05s.11-.05.14-.05c.06,0,.14.08.23.23.12.33.32.62.59.86.39.39.59.75.59,1.08,0,.15-.12.86-.36,2.12-.06,0-.16-.1-.29-.29-.14-.2-.2-.35-.2-.47,0-.03.03-.06.09-.09.06-.06.09-.14.09-.23,0-.54-.21-1.01-.63-1.4-.12-.09-.18-.15-.18-.18s.01-.08.04-.14v-.04c0-.18-.27-.44-.81-.77-.42-.27-.63-.47-.63-.59,0-.06-.03-.09-.09-.09-.03,0-.09.03-.18.09-.06.03-.12.06-.18.09-.15.15-.24.23-.27.23,0-.03.01-.09.05-.18.03-.06.04-.11.04-.14,0-.09-.14-.15-.41-.18-.3-.03-.45-.11-.45-.23l.05-.09s.04-.08.04-.14c-.03,0-.12.03-.27.09-.27.12-.47.18-.59.18s-.27-.05-.45-.14c-.21-.09-.39-.14-.54-.14-.09,0-.2.03-.32.09l-.09.05c0-.27.15-.41.45-.41.09,0,.21.03.36.09.09.03.15.05.18.05,0-.06-.06-.16-.18-.3-.12-.14-.26-.2-.41-.2-.09,0-.24.06-.45.18-.21.12-.36.18-.45.18-.18,0-.53-.18-1.04-.54-.09-.09-.17-.15-.23-.18.09.12.2.26.32.41.15.18.33.41.54.68.09.09.15.15.18.18-.06-.03-.14-.08-.23-.14-.42-.27-.77-.41-1.04-.41-.06,0-.14.02-.23.05-.03.03-.06.05-.09.05-.09,0-.14-.06-.14-.18s.09-.21.27-.27c.12-.03.18-.08.18-.14,0-.09-.09-.18-.27-.27-.06,0-.17.09-.32.27-.15.18-.27.33-.36.45-.06-.27-.11-.47-.14-.59-.03-.12-.06-.26-.09-.41v.05c-.03.33-.12.57-.27.72-.15.15-.5.23-1.04.23-.36,0-.57-.09-.63-.27-.03-.09-.11-.14-.23-.14-.06,0-.17.02-.32.05-.24.06-.47.09-.68.09-.24,0-.57-.03-.99-.09-.36-.06-.62-.09-.77-.09-.18,0-.33.03-.45.09-.27.12-.8.18-1.58.18-.45,0-.72-.09-.81-.27-.03-.03-.06-.05-.09-.05-.06,0-.15.05-.27.14-.15.12-.27.18-.36.18-.12,0-.27-.09-.45-.27-.06-.06-.11-.09-.14-.09l.04.05c.06.15.09.26.09.32,0,.09-.06.14-.18.14h-.18c-.3-.03-.71-.05-1.22-.05l-.72.05c.03.06.09.17.18.32.87,1.33,1.41,2.16,1.6,2.51s.43.88.7,1.6c.12.3.23.56.32.77.06,7.14.11,11.76.14,13.85s.07,3.23.14,3.41v.45c0,2.29-.64,4.83-1.92,7.61-1.28,2.79-2.98,5.4-5.11,7.84-2.12,2.44-4.39,4.34-6.8,5.69-2.23,1.3-4.65,2.44-7.25,3.41-2.61.98-4.93,1.61-6.98,1.88-.15.03-.36.06-.63.09-1.15.15-2.14.25-2.98.32-.84.06-2.3.09-4.38.09-2.26,0-3.74-.05-4.43-.14Zm.93-14.03c1.73-.32,3.17-.66,4.32-1.02,1.14-.36,1.72-.57,1.72-.63.42-.12,1.99-.71,4.7-1.76,11.54-4.49,19.27-11.09,23.19-19.8-.51-1.05-1.55-2.36-3.12-3.93-1.57-1.57-3.16-2.91-4.79-4.02-1.63.45-2.64.68-3.03.68,0-.12.53-.3,1.58-.54.63-.15.95-.24.95-.27,0-.12-.42-.43-1.27-.93-.84-.5-1.6-.75-2.26-.75-.6,0-1.39.21-2.35.63-2.02.6-3.03,1.16-3.03,1.67,0,.09.11.14.32.14.09,0,.18-.03.27-.09.12-.09.24-.14.36-.14.06,0,.15.02.27.05s.2.04.23.04.05-.01.05-.04c0-.06-.02-.11-.05-.14-.03-.06-.04-.12-.04-.18,0-.09.04-.14.14-.14s.2.06.32.18c.18.15.35.23.5.23.27,0,.51-.11.72-.32.09-.09.17-.14.23-.14.12,0,.3.21.54.63.03.06.06.11.09.14-.99.33-1.76.5-2.3.5-.21,0-.33-.02-.36-.05-.06-.03-.12-.05-.18-.05l-.05.05.05.09c0,.21-.53.5-1.58.86-5.03,1.69-10.24,4.35-15.64,7.98-5.39,3.63-9.4,7.19-12.02,10.69-1.03,1.36-1.95,2.83-2.78,4.41-.83,1.58-1.24,2.69-1.24,3.32,0,.36.04.57.14.63.03,0,.11-.18.23-.54,1.36-3.95,4.01-7.85,7.95-11.71,1.51-1.51,3.27-3.06,5.29-4.66,2.02-1.6,3.22-2.39,3.62-2.39.12,0,.23-.08.32-.23.18-.33,2.07-1.42,5.67-3.28s5.69-2.78,6.26-2.78c.03.03.07.04.14.04s.12-.04.18-.14c.03-.15.71-.47,2.03-.97,1.32-.5,2.12-.75,2.4-.75.03,0,.04.02.04.05h.04s.14-.05.32-.14c.57-.33,1.08-.5,1.54-.5.15,0,.23.03.23.09,0,.15-.38.35-1.13.59-5.12,1.51-10.43,3.97-15.91,7.39-5.48,3.42-9.81,6.95-12.97,10.6-1.42,1.63-2.66,3.39-3.73,5.29-1.07,1.9-1.61,3.28-1.61,4.16,0,.69.89,1.26,2.67,1.69,1.78.44,3.87.66,6.28.66,1.99,0,3.85-.16,5.58-.47Zm2.08,1.51c3.3-.66,5.11-1.16,5.45-1.49l1.99-1.27s-.08.15-.23.36l-.14.18s.03.05.09.05c.6,0,2.05-.56,4.34-1.69s4.87-2.64,7.73-4.54c2.86-1.9,5.5-3.98,7.91-6.24-5.76,3.86-9.42,6.25-10.98,7.19-.39.24-.9.57-1.54,1-1.24.81-1.99,1.22-2.26,1.22l-.04-.05c0-.06.15-.21.45-.45.21-.18.38-.32.5-.41-.84.21-1.81.59-2.89,1.13-3.07,1.42-6.24,2.51-9.51,3.28s-6.3,1.15-9.11,1.15c-1.69,0-3.08-.12-4.18-.36-1.1-.24-2.13-.54-3.1-.9-.6-.21-.99-.32-1.17-.32s-.27.06-.27.18c0,.42.55.87,1.65,1.33,1.1.47,2.43.86,4,1.18,1.57.32,3.01.47,4.34.47s3.68-.33,6.98-1Z"/>
    <path d="m267.98,123.12c-.65-.17-1.03-.37-1.15-.61-.09-.09-.15-.14-.18-.14l-.05.04s-.01.05-.04.05c-.18,0-.71-.33-1.58-.99-.6-.48-.95-.72-1.04-.72s-.47-.5-1.13-1.49c-.27-.39-.42-.6-.45-.63-.72-.54-1.36-1.96-1.9-4.25-.54-2.29-.81-4.63-.81-7.01,0-1.84.26-4.04.79-6.6.53-2.56.96-4.35,1.29-5.38.57-1.84,1.32-4.14,2.26-6.92-.06,0-.09-.04-.09-.14,0-.78,1.64-4.25,4.93-10.39,3.28-6.15,6.18-11.18,8.68-15.1,1.27-1.93,1.9-3.04,1.9-3.34,0-.06-.02-.09-.05-.09s-.14.06-.32.18c-.18.15-.3.23-.36.23-.03,0-.06-.05-.09-.14-.09,0-.3.26-.63.77-.33.51-.5.86-.5,1.04,0,.03.01.08.04.14v.05c-.12,0-.26-.05-.41-.14h-.04s-.04.03-.04.09c.03.21.07.36.14.45v.05c0,.06-.02.09-.05.09l-.04-.04c-1.03,1.45-1.79,2.53-2.3,3.25l-.14.18c.39-.54-.41.63-2.4,3.53l.04.04c.06,0,.09.02.09.05,0,.09-.35.72-1.04,1.9-1.54,2.65-2.89,5.11-4.07,7.37-.45.9-.86,1.6-1.22,2.08-.12.18-.18.35-.18.5,0,.18-.09.3-.27.36l-.05-.05c0-.39.83-2.14,2.49-5.24,1.66-3.1,2.85-5.12,3.57-6.06.33-.42.5-.71.5-.86v-.05s-.04-.01-.04-.04c0-.39,1.18-2.33,3.53-5.83.96-1.42,1.45-2.15,1.45-2.21,0-.15.15-.41.45-.77.18-.21.27-.35.27-.41,0-.09-.09-.14-.27-.14-.51,0-2.69.34-6.53,1.02-3.84.68-6.79,1.21-8.84,1.6-.15.03-.36.09-.63.18-.36.12-.62.18-.77.18-.09,0-.2-.01-.32-.05-.12-.03-.2-.04-.23-.04-.12,0-.18.03-.18.09,0,.12-.77.37-2.3.75-1.54.38-2.56.56-3.07.56-.09,0-.17-.01-.23-.04-.03-.03-.06-.05-.09-.05h-.04c-.03.09-.49.28-1.38.56-.89.29-2.78.79-5.67,1.52-.06-.03-.15-.08-.27-.14-.39-.21-.65-.37-.77-.47s-.18-.25-.18-.43c0-.36.2-1.26.59-2.71.21-.81.32-1.27.32-1.36,0-.06-.01-.14-.04-.23v-.09c0-.36.98-1,2.94-1.9,2.41-1.2,5.52-2.24,9.33-3.1,3.81-.86,8.76-1.62,14.85-2.28,1.27-.12,2.76-.24,4.47-.36.18,0,.44-.01.77-.05,1.45-.12,2.44-.26,2.98-.43.54-.17,1.05-.52,1.51-1.06.47-.54,1.26-1.63,2.37-3.25.27-.42.48-.75.63-.99,1.14-1.75,2.29-3.39,3.44-4.93,1.14-1.54,1.78-2.3,1.9-2.3,0,.12-.38.72-1.13,1.81-.63.87-.95,1.36-.95,1.45l.05.05c0,.06-.08.12-.23.18-.27.15-.41.32-.41.5.03.03.04.08.04.14,0,.09-.06.14-.18.14s-.18.05-.18.14l.04.09c.03.09.05.15.05.18,0,.03-.03.05-.09.05-.12,0-.23.08-.34.23s-.29.44-.56.86c-.66,1.08-1.3,2.03-1.9,2.85-1.57,2.11-2.35,3.34-2.35,3.71,0,.09.04.14.14.14.18,0,.57-.41,1.15-1.24s1.44-2.1,2.55-3.82c1.36-2.08,2.44-3.69,3.25-4.81.81-1.13,1.4-1.79,1.76-1.97l.77-.41c.6.36,1.17.91,1.69,1.65.53.74.79,1.41.79,2.01,0,.03-.02.06-.05.09v.14s.03.08.09.14c.27.18.48.53.63,1.04.15.54.33.9.54,1.08.09.09.14.26.14.5,0,.84-.32,2.23-.95,4.16-.24.66-.36,1.05-.36,1.17l.09.05c.27,0,.54-.32.81-.97.27-.65.56-1.51.86-2.6.24-.9.39-1.36.45-1.36.12,0,.23.09.32.27.09.18.14.44.14.77,0,.45-.14,1.18-.41,2.17-.21.84-.32,1.43-.32,1.76,0,.12.01.18.04.18s.06-.03.09-.09c.09-.18.21-.27.36-.27.06,0,.2.03.41.09.24.06.42.09.54.09s.23-.03.32-.09c.09-.09.21-.14.36-.14h.09c.39.09,1.31.14,2.76.14,1.24,0,2.26.09,3.07.27.33.09.62.14.86.14.39,0,.69-.08.9-.23.06-.06.1-.09.14-.09s.07.02.14.05c.63.21,2.28.39,4.93.54,1.21.09,1.97.26,2.31.5.06.03.1.05.14.05s.07-.02.14-.05c.15-.06.33-.09.54-.09,1.39,0,4.08.61,8.09,1.83,4.01,1.22,6.63,2.24,7.86,3.05.6.42,1.07.99,1.4,1.69s.5,1.45.5,2.24c0,1.05-.27,1.92-.81,2.6-.54.68-1.04,1.02-1.49,1.02-.12,0-.18-.06-.18-.18,0-.15.12-.44.36-.86.42-.66.63-1.19.63-1.58,0-1.24-1.51-2.25-4.52-3.05-3.01-.8-6.69-1.37-11.03-1.72-4.34-.35-8.59-.52-12.74-.52-2.2,0-4.79.09-7.77.27-.81.03-1.46.06-1.94.09-4.19,6.75-7.86,12.87-11.01,18.35-3.15,5.48-5.94,10.73-8.38,15.75-2.44,5.02-4.35,9.66-5.74,13.92-1.39,4.26-2.08,8.01-2.08,11.23,0,1.42.23,2.77.68,4.07.12.33.18.54.18.63s.45.23,1.36.41c1.3.27,1.94.5,1.94.68,0,.12-.38.18-1.13.18-.87,0-1.64-.08-2.28-.25Z"/>
    <path d="m324.75,116.18c-1.64-.6-3.26-1.75-4.86-3.44-.57-.6-1.1-1.33-1.58-2.17-.48-.84-.72-1.45-.72-1.81v-.18c.03-.09.04-.17.04-.23,0-.27-.08-.56-.23-.86-.18-.42-.33-.96-.45-1.63s-.18-1.78-.18-3.35c0-2.98.23-5.69.68-8.11.45-2.43.99-4.83,1.63-7.21.33-1.15.5-1.82.5-2.03,0-.09-.03-.14-.09-.14-.18,0-.45.57-.81,1.72-.33.97-.56,1.45-.68,1.45-.06,0-.12.24-.18.72-.06.84-.18,1.34-.36,1.49-.18.12-.27.24-.27.36,0,.39-.3,2.26-.9,5.61-.03.12-.06.72-.09,1.81-.06,1.45-.12,2.61-.18,3.48s-.14,1.31-.23,1.31-.14-.54-.14-1.63c0-3.92.44-7.82,1.31-11.71.12-.57.18-.9.18-1-.06,0-.47.44-1.22,1.31-.6.72-.92,1.08-.95,1.08l-.05-.05c.18-.27.27-.45.27-.54,0-.12-.05-.18-.14-.18-.15,0-.32.14-.5.43s-.27.53-.27.75c0,.12.03.18.09.18.03,0,.08-.02.14-.05.15-.06.24-.09.27-.09,0,.12-.24.36-.72.72,0-.03.01-.09.05-.18.03-.12.04-.2.04-.23,0-.06-.03-.09-.09-.09-.21,0-.47.19-.79.57-.32.38-.73.94-1.24,1.69-.54.78-.92,1.3-1.13,1.54-1.57,1.6-2.58,2.74-3.03,3.43-.06.09-.11.14-.14.14-.15,0-.52.26-1.11.79-.59.53-.88.84-.88.93.03,0,.11-.04.23-.14.12-.06.2-.09.23-.09,0,.06-.18.28-.54.66-.36.38-.57.56-.63.56-.03,0-.05-.01-.05-.05,0-.03.05-.11.14-.23l.05-.14c-.09,0-.26.11-.5.34-.24.23-.36.41-.36.57l.04.09c0,.18-.11.24-.32.18-.06,0-.17.14-.32.41-.24.45-.42.68-.54.68l-.05-.05.05-.14c.09-.15.14-.24.14-.27,0-.06-.02-.09-.05-.09-.18,0-.78.47-1.81,1.4-2.02,1.87-3.71,3.18-5.06,3.93-.33.18-.5.33-.5.45,0,.03.01.06.04.09.03.03.05.06.05.09,0,.12-.14.26-.41.41-.27.15-.53.23-.77.23-.12,0-.2-.02-.23-.05-.03,0-.06-.01-.09-.05-.03-.03-.06-.04-.09-.04s-.04.01-.04.04l.04.09c.03.06.05.11.05.14,0,.18-.26.34-.79.47-.53.14-1.12.2-1.79.2-.96,0-1.7-.14-2.21-.41-1.87-1.05-3.32-2.06-4.36-3.03-1.04-.97-1.79-2.02-2.24-3.16-.45-1.14-.68-2.5-.68-4.07,0-2.5.77-5.39,2.3-8.68s3.59-6.49,6.15-9.6,5.3-5.7,8.23-7.75c1.51-1.08,2.26-1.72,2.26-1.9l-.05-.05s.09.02.18.05c.12.03.21.04.27.04.24,0,.6-.21,1.08-.63.15-.15.24-.23.27-.23s.04.02.04.04l.05.05.04-.05c.9-.6,3.55-1.66,7.95-3.16l2.26.14c1.75.06,3.44.54,5.08,1.45,1.64.9,2.88,2.03,3.73,3.39.36.57.62.86.77.86.21,0,.51-.35.9-1.04.99-1.69,2.42-3.48,4.27-5.38,1.85-1.9,3.07-2.85,3.64-2.85.18,0,.27.11.27.32,0,.15-.15.24-.45.27-.3,0-1.15.7-2.53,2.1s-2.67,2.89-3.84,4.45-1.76,2.71-1.76,3.44c0,.24.06.36.18.36s.77-.69,1.94-2.08c1.78-2.11,3.37-3.85,4.79-5.22s2.64-2.06,3.66-2.06c.45,0,.89.13,1.31.38.42.26.86.6,1.31,1.02.36.33.59.5.68.5.15,0,.23.06.23.18l-.04.31c0,.27.07.44.23.5.03,0,.06-.01.09-.04.18,0,.36.18.54.54.12.27.23.41.32.41s.14-.04.14-.14c0-.06-.02-.11-.04-.14l-.05-.09c0-.12.06-.18.18-.18.18,0,.27.09.27.27,0,.12-.08.24-.23.36-.18.18-.27.35-.27.5,0,.21.07.32.23.32l.18-.05c.15,0,.26.15.32.45,0,.27-.08.41-.23.41-.03-.03-.08-.04-.14-.04-.09,0-.14.04-.14.14,0,.15.14.23.41.23.33,0,.5-.11.5-.32,0-.06-.02-.17-.04-.32-.03-.15-.05-.24-.05-.27,0-.06.01-.09.05-.09.03,0,.14.18.34.54s.29.59.29.68c0,.03-.01.04-.04.04h-.04c-.06-.03-.11-.04-.14-.04-.09,0-.24.17-.45.5-.24.36-.44.54-.59.54l-.09-.05c-.54.88-.81,1.34-.81,1.4l.04.18-.14.05s-.11-.02-.23-.05c-.12-.03-.21-.05-.27-.05-.15,0-.23.05-.23.14,0,.06.01.14.04.23.03.06.05.11.05.14,0,.18-.17.39-.5.63s-.5.44-.5.59c0,.21-.17.39-.5.54-.27.06-.45.2-.54.41-.03.09-.08.14-.14.14-.15,0-.26-.05-.32-.14-.03,0-.04.02-.04.05l.09.14c.21.36.32.63.32.81,0,.12-.03.18-.09.18-.15-.09-.23-.18-.23-.27,0-.06.01-.14.04-.23l.04-.09-.04-.04c-.24.15-.36.32-.36.5,0,.03.01.08.04.14v.05c0,.12-.2.18-.59.18-.3,0-.45.05-.45.14v.09s.04.01.04.04c0,.06-.06.11-.18.14-.12,0-.18.05-.18.14,0,.21.12.32.36.32.09,0,.17-.03.23-.09l-.14.14c-.48.57-.72.98-.72,1.22,0,.03.01.08.05.14v.05c0,.09-.05.14-.14.14-.03,0-.08-.01-.14-.05-.06-.03-.12-.04-.18-.04-.15,0-.26.06-.32.18-.03.15-.14.23-.32.23s-.35.12-.5.36c-.15.24-.23.44-.23.59,0,.03.01.05.04.05l.18-.05s-.08.14-.23.32c-.39.45-.59.75-.59.9l.09.18s-.04.06-.14.09c-.24.06-.36.2-.36.41,0,.18-.12.27-.36.27h-.32c-.15,0-.23.03-.23.09s.01.12.04.18c.03.18.14.27.32.27l.18-.04-.23.27c-.75.78-1.13,1.31-1.13,1.58,0,.3-.08.59-.23.86-.15.27-.3.41-.45.41-.12,0-.18-.04-.18-.14,0-.03.01-.07.05-.14l.04-.09c0-.06-.03-.09-.09-.09-.12,0-.25.06-.38.18-.14.12-.2.24-.2.36,0,.09.04.14.14.14.06,0,.12-.01.18-.05h.14c.15,0,.23.03.23.09s-.11.18-.32.36c-.18.18-.27.3-.27.36,0,.03.04.05.14.05.18.03.27.12.27.27,0,.12-.04.18-.14.18-.03,0-.09-.02-.18-.05l-.09-.05c-.06,0-.09.03-.09.09l.04.32c0,.3-.08.45-.23.45-.03,0-.09-.02-.18-.05l-.09-.05s.07.15.23.36c.21.24.41.48.59.72l-1.13-.63c.18.75.41,1.13.68,1.13h.04c0,.09-.06.14-.18.14-.09,0-.2-.04-.32-.14-.12-.06-.21-.09-.27-.09-.36,0-.6.38-.72,1.13,0,.09.04.21.14.36l.04.09-.04.04s-.12-.06-.27-.18c-.15-.12-.24-.18-.27-.18s-.04.04-.04.14c0,.18.03.37.09.56.06.2.15.29.27.29.03,0,.07-.01.14-.05h.09v.05c-.12.21-.29.32-.5.32-.12,0-.22.1-.29.29-.08.2-.16.5-.25.93-.18.94-.38,1.54-.59,1.81-.21.18-.36.59-.45,1.22-.06.45-.17.69-.32.72-.12.03-.18.08-.18.14h.05c.21.03.32.12.32.27,0,.03-.02.09-.05.18s-.04.17-.04.23c0,.15.11.32.32.5.09.09.14.15.14.18-.03,0-.11-.01-.23-.04-.15-.06-.26-.09-.32-.09-.09,0-.14.03-.14.09,0,.03.01.11.04.23.03.09.05.15.05.18,0,.06-.02.09-.05.09-.06,0-.11-.01-.14-.04l-.09-.05c-.06,0-.09.08-.09.23v.23c.03.18.05.32.05.41,0,.24-.08.39-.23.45-.09.06-.14.14-.14.23s.06.14.18.14c.06,0,.17-.01.32-.05.06-.03.11-.04.14-.04s.05.01.05.04c0,.03-.08.14-.23.32-.42.48-.63.81-.63,1,0,.06.04.17.14.32.18.33.27.74.27,1.22,0,.27-.06.41-.18.41s-.18-.12-.18-.36v-.14c.03-.09.05-.17.05-.23,0-.15-.05-.23-.14-.23-.12,0-.18.18-.18.54,0,.51.12,1.07.36,1.67.12.33.18.57.18.72,0,.24-.09.36-.27.36l-.41-.09s.08.14.23.32c.27.3.41.51.41.63s-.09.29-.27.5l-.09.09c.15-.09.26-.14.32-.14.15,0,.26.27.32.81,0,.21.01.36.04.45h.54c.18,0,.36.18.54.54.15.24.27.36.36.36l.05-.04c.09,0,.14.11.14.32,0,.24-.08.36-.23.36-.12,0-.2-.06-.23-.18-.06-.15-.2-.23-.41-.23-.18,0-.27.03-.27.09l.04.05s.14.12.32.27c.75.6,1.19.91,1.31.91,0-.03-.02-.08-.04-.14l-.05-.09.05.09c1.08,1.54,1.94,2.3,2.58,2.3.09,0,.14-.03.14-.09,0-.09-.18-.32-.54-.68-.51-.54-.77-.9-.77-1.08.12,0,.32.14.61.41.29.27.9.89,1.83,1.85.51,0,1.11-.02,1.81-.05.9-.03,1.72-.05,2.44-.05,1.29,0,1.94.08,1.94.23,0,.21-.45.39-1.36.54-.9.15-2.02.23-3.34.23-2.29,0-4.26-.3-5.9-.9Zm-31.46-10.6c1.61-.71,3.08-1.53,4.41-2.46,2.26-1.6,5.3-4.32,9.11-8.16s7.2-7.55,10.17-11.14c2.97-3.58,4.45-5.8,4.45-6.64,0-.36-.53-.54-1.58-.54-.54,0-1.98.23-4.32.7-2.33.47-3.5.73-3.5.79,0,.12-.6.48-1.81,1.08-2.83,1.45-5.15,2.85-6.96,4.2-1.42,1.05-3.17,2.61-5.26,4.68-2.09,2.06-3.14,3.26-3.14,3.59l-3.07,4.29c0,.06-.21.47-.63,1.22-.87,1.6-1.62,3.1-2.24,4.52-.62,1.42-.93,2.7-.93,3.84,0,.39.08.67.25.84.17.17.5.25,1.02.25,1.08,0,2.43-.36,4.05-1.06Zm30.8,6.08c0-.12-.15-.24-.45-.36l-.45-.09c.03.09.09.23.18.41.15.21.32.32.5.32.15,0,.23-.09.23-.27Zm1.2-2.33c-.08-.41-.11-.97-.11-1.69,0-1.02.09-1.64.27-1.85.12-.15.18-.39.18-.72,0-.9.2-1.79.59-2.67.12-.24.18-.39.18-.45,0-.09-.11-.14-.32-.14-.09,0-.14-.01-.14-.05.03,0,.08-.04.14-.14.24-.15.36-.29.36-.41,0-.03-.02-.08-.04-.14-.03-.03-.05-.08-.05-.14,0-.21.12-.57.36-1.08.21-.36.32-.6.32-.72s-.04-.18-.14-.18c-.03,0-.09.03-.18.09l-.14.09-.04-.04c0-.06.04-.14.11-.23s.16-.14.25-.14c.06,0,.11.02.14.05h.09c.15,0,.27-.08.36-.23,0-.09-.12-.17-.36-.23-.18,0-.27-.01-.27-.04l.04-.09c.27-.18.41-.39.41-.63s.09-.47.27-.68c.12-.12.18-.24.18-.36,0-.03-.02-.06-.04-.09v-.14c0-.15.15-.29.45-.41.24-.09.36-.2.36-.32,0-.06-.03-.15-.09-.27-.15-.24-.23-.47-.23-.68,0-.27.07-.41.23-.41h.05c.12,0,.21-.05.27-.14.09-.18.26-.38.5-.59.21-.15.32-.27.32-.36,0-.06-.03-.12-.09-.18-.15-.06-.23-.17-.23-.32,0-.03.01-.07.04-.14.03-.03.04-.06.04-.09,0-.15-.18-.38-.54-.68-.27-.27-.41-.47-.41-.59s.1-.18.32-.18c.24,0,.36.02.36.05l-.09.05c-.18.09-.27.18-.27.27,0,.12.07.22.2.29s.29.11.47.11c.36,0,.66-.18.9-.54.24-.36.36-.78.36-1.27,0-.36-.12-.78-.36-1.27-.03-.12-.06-.21-.09-.27.03.03.08.09.14.18.27.36.51.54.72.54s.37-.09.47-.27.2-.45.29-.81c.12-.42.24-.66.36-.72.21-.09.32-.2.32-.32,0-.03-.01-.06-.04-.09s-.04-.06-.04-.09c0-.06.07-.14.23-.23.33-.27.54-.6.63-1,.09-.45.62-1.2,1.58-2.26.21-.21.32-.33.32-.36.03-.39.35-.98.95-1.76.3-.39.45-.63.45-.72,0-.06-.02-.09-.05-.09s-.17.14-.41.41c-.3.3-.48.45-.54.45-.03,0-.05-.01-.05-.05,0-.12.07-.25.23-.41.12-.15.18-.29.18-.41,0-.06-.03-.15-.09-.27v-.09l.05.05c.03.06.06.09.09.09l.09-.09c.63-.72,1.04-1.08,1.22-1.08.03,0,.05.02.05.05s-.09.17-.27.41c-.3.39-.45.63-.45.72,0,.03.01.05.05.05.12,0,.3-.13.54-.39.24-.25.36-.5.36-.75,0-.03-.02-.07-.05-.14-.03-.09-.04-.15-.04-.18,0-.18.05-.32.16-.41s.19-.14.25-.14v.05s-.05.11-.14.23l-.09.18v.05c.09,0,.25-.11.47-.34.23-.23.34-.41.34-.57,0-.09-.03-.14-.09-.14-.03,0-.08.03-.14.09-.09.03-.15.04-.18.04-.18,0-.27-.07-.27-.23,0-.21.17-.52.5-.93.33-.41.59-.61.77-.61.09,0,.14.02.14.05s-.05.08-.14.14c-.15.12-.23.21-.23.27,0,.09.09.17.27.23.09,0,.14-.06.14-.18.03-.12.07-.18.14-.18.03,0,.05.02.05.05h.09v.04c.12,0,.18-.14.18-.41,0-.24-.11-.36-.32-.36l-.36.05c-.06,0-.09-.02-.09-.05,0-.09.24-.33.72-.72.72-.54,1.18-.98,1.36-1.31.06-.27.17-.41.32-.41.03,0,.06.02.09.05.06.03.12.04.18.04.3,0,.53-.14.68-.41.15-.27.27-.6.36-.99.09-.3.15-.45.18-.45.24,0,.48.78.72,2.35-.09.09-.23.24-.41.45-1.63,1.93-2.58,2.89-2.85,2.89h-.09l-.04-.05s-.05.02-.05.05.01.06.05.09c.03.06.04.12.04.18,0,.27-.18.64-.54,1.11s-.65.7-.86.7c-.15,0-.23.05-.23.14l.04.05v.09c0,.3-1.34,2.37-4.02,6.19-2.14,3.04-3.21,4.67-3.21,4.88-.03.06-.21.45-.54,1.17-1.51,3.1-2.35,4.99-2.53,5.65,0,.03-.02.11-.04.23-.78,2.56-1.22,3.9-1.31,4.02,0,.03-.02.06-.05.09-.18.42-.29.71-.32.86-.27,1.96-.51,3.87-.72,5.74-.06,1.06-.17,1.58-.32,1.58-.09,0-.17-.2-.25-.61Z"/>
    <path d="m333.49,116.43c-.45-.5-.68-1.56-.68-3.19,0-1.27.22-2.69.66-4.27.44-1.58.75-2.37.93-2.37h.09l.04.05c.06,0,.08-.02.05-.05,0-.03-.01-.08-.05-.14-.03-.09-.04-.17-.04-.23,0-.54.42-1.9,1.26-4.07.84-2.17,1.73-4.23,2.67-6.17.93-1.94,1.54-2.92,1.81-2.92.15,0,.23-.01.23-.04l-.09-.05c-.18-.09-.27-.18-.27-.27,0-.18.07-.37.2-.57.14-.2.26-.29.39-.29l.09.09c.06,0,.09-.08.09-.23v-.14c-.03-.06-.04-.12-.04-.18,0-.24.1-.5.29-.77.2-.27.32-.41.38-.41l.04.05-.04.09c-.06.24-.09.41-.09.5,0,.06.01.09.05.09.15,0,.35-.32.59-.95-.06,0-.15.03-.27.09h-.04c-.06,0-.09-.05-.09-.14,0-.3.2-.73.59-1.29.39-.56.95-1.27,1.67-2.15.87-1.11,1.31-1.75,1.31-1.9l-.04-.04c-.06,0-.24.23-.54.68-.33.51-.54.77-.63.77-.03,0-.05-.03-.05-.09,0-.33.48-1.13,1.45-2.4.6-.84.98-1.42,1.13-1.72.54-1.14.95-1.72,1.22-1.72.09,0,.14.06.14.18s-.39.71-1.17,1.76c-.9,1.3-1.36,2.02-1.36,2.17.12,0,.66-.7,1.63-2.1.96-1.4,1.45-2.19,1.45-2.37l-.09.09c-.15.12-.26.18-.32.18s-.09-.03-.09-.09c0-.45.87-1.69,2.6-3.73s3.55-3.99,5.47-5.88,3.07-2.83,3.46-2.83c.06,0,.11.03.14.09.06.06.14.09.23.09.12,0,.33-.05.63-.14.18-.06.29-.09.32-.09s.05.03.05.09c0,.03-.02.09-.05.18-.03.12-.04.21-.04.27s.03.09.09.09c.03,0,.09-.01.18-.04.12-.03.21-.05.27-.05s.09.03.09.09-.02.12-.05.18c0,.24.09.39.27.45.06.03.09.06.09.09l-.05.09c-.03.09-.04.15-.04.18,0,.06.06.09.18.09s.25-.07.41-.23c.18-.18.35-.27.5-.27.09,0,.14.01.14.04l-.09.09c-.15.12-.23.21-.23.27,0,.09.2.2.59.32.9.33,1.67,1.03,2.3,2.1.63,1.07.95,2.1.95,3.1,0-.03.01-.06.05-.09.42-.6.63-1.05.63-1.36,0-.06-.02-.14-.05-.23v-.05c0-.06.03-.09.09-.09.18,0,.35.11.52.34.17.23.25.53.25.93,0,.48-.36,1.25-1.08,2.3-.72,1.05-1.21,1.58-1.45,1.58-.18,0-.27-.11-.27-.32.09-.15.26-.26.5-.32.21-.06.35-.15.41-.27l.09-.09s-.09.02-.18.05c-.06.03-.11.04-.14.04-.06,0-.14-.04-.23-.14-.03-.03-.06-.04-.09-.04-.12,0-.29.17-.5.52s-.32.58-.32.7c0,.03.01.04.05.04h.04s.07-.04.14-.04c.12,0,.18.09.18.27,0,.33-.2.5-.59.5l-.32-.05c-.09,0-.14.05-.14.14l.05.32c0,.39-.44.59-1.31.59h-.27c-.21,0-.32.02-.32.05,0,.12.27.23.81.32l.09-.05c.09,0,.14.06.14.18s-.18.29-.54.5c-.33.18-.58.35-.75.52-.17.17-.25.37-.25.61,0,.06.01.12.04.18.03.06.05.11.05.14,0,.09-.06.17-.18.25s-.23.11-.32.11c-.06,0-.09-.03-.09-.09l.05-.14c0-.06-.03-.09-.09-.09-.3,0-.45.23-.45.68v.23c.03.09.04.17.04.23,0,.21-.08.33-.23.36-.12.03-.18.11-.18.23,0,.03.01.08.04.14.03.15.04.27.04.36h-.04s-.02-.05-.04-.05c-.12,0-.42.3-.9.9-.48.6-.72.97-.72,1.08.18,0,.83-.44,1.94-1.33,1.11-.89,2.61-2.1,4.47-3.64,1.87-1.56,2.85-2.36,2.94-2.39.21-.03.36-.17.45-.41.06-.15.15-.23.27-.23.15,0,.52-.2,1.11-.59.59-.39.91-.66.97-.81.03-.09.36-.29.99-.59.96-.48,1.45-.8,1.45-.95,0-.09.05-.14.14-.14.03,0,.07.02.14.05.06.03.11.04.14.04s.07-.04.14-.14c.36-.45,1.05-.78,2.08-.99.06,0,.17-.05.32-.14.75-.51,1.91-.91,3.48-1.18.3,0,.53.14.68.41.06.12.12.18.18.18.03,0,.06-.01.09-.04.06-.03.12-.05.18-.05.33,0,.78.44,1.33,1.33.56.89.91,1.76,1.06,2.6.03.12.14.65.32,1.58,1.48,6.72,2.22,11.36,2.22,13.92,0,.93-.09,1.4-.27,1.4-.51,0-.88-.47-1.11-1.42s-.46-2.45-.7-4.5c-.24-1.9-.47-3.46-.7-4.68s-.59-2.26-1.08-3.12c-.5-.86-1.15-1.29-1.97-1.29-.99,0-2.17.3-3.53.9-1.36.6-2.8,1.33-4.34,2.17-.63.36-.98.54-1.04.54-.18,0-1.63,1.05-4.34,3.16-2.5,1.96-3.87,2.97-4.11,3.03-.12.06-.54.5-1.26,1.31-1.42,1.63-2.29,2.44-2.62,2.44h-.09s-.06-.04-.09-.04c-.06,0-.09.04-.09.14,0,.18-.45.75-1.36,1.69-.9.95-1.45,1.42-1.63,1.42s-.3.09-.36.27c0,.45-1.11,1.69-3.34,3.71-.6.57-.9.87-.9.9s.03.05.09.05c.15.03.23.09.23.18s-.11.17-.32.23c-.06,0-.14-.01-.23-.05l-.09-.04s-.05.01-.05.04l.05.05c.03.06.04.11.04.14,0,.15-.12.35-.36.59-.24.24-.39.36-.45.36l.04-.14c.06-.12.09-.2.09-.23l-.05-.04c-.06,0-.14.05-.25.16-.11.11-.16.22-.16.34v.09c.03.06.04.11.04.14,0,.24-.39.8-1.18,1.67-.51.57-.77.9-.77,1,0,.12-.12.24-.36.36-.3.18-.45.38-.45.59s-.17.43-.5.66c-.33.23-.63.34-.9.34-.12,0-.18.08-.18.23,0,.12.07.21.23.27.09.03.14.06.14.09,0,.27-.32.5-.95.68-.15.03-.23.06-.23.09,0,.03.04.08.14.14.18.12.27.21.27.27,0,.21-.35.42-1.04.63-.63.18-.95.36-.95.54,0,.09.03.14.09.14s.17-.06.32-.18c.21-.15.36-.23.45-.23.12,0,.18.06.18.18,0,.39-1.19,1.7-3.57,3.93-1.05,1-1.58,1.54-1.58,1.63,0,.06.03.08.09.04,0,.12-.3.41-.9.86.12-.03.27-.08.45-.14.21-.09.35-.14.41-.14l.04.05c0,.12-.2.25-.59.39s-1.13.2-2.21.2-1.85-.25-2.3-.75Z"/>
    <path d="m437.22,127.48c-2.74.81-5.15,1.22-7.23,1.22-1.08,0-1.92-.1-2.51-.29-.59-.2-1.24-.52-1.97-.97-1.24-.72-2.46-1.28-3.66-1.67-2.86-.97-4.93-2.36-6.21-4.18-1.28-1.82-1.92-4.38-1.92-7.66,0-2.05.24-4.53.72-7.46.78-4.67,3.81-11.97,9.08-21.9s12.37-21.73,21.29-35.41c7.47-11.3,13.77-21.24,18.89-29.83.06-.09.1-.15.14-.18.06-.12.17-.29.32-.5,1.45-2.44,2.36-3.94,2.76-4.5.39-.56.77-.84,1.13-.84.54,0,1.16.26,1.85.77.69.51,1.04,1.04,1.04,1.58,0,.27.15.48.45.63.18.12.27.23.27.32,0,.03-.02.05-.05.05v.09c0,.12.32.65.95,1.58,1.05,1.54,1.58,2.52,1.58,2.94,0,.24.12.54.36.9.27.45.41.84.41,1.17l-.04.68c-.12-.27-.26-.59-.41-.95-.15-.51-.44-.95-.86-1.31-.03-.03-.06-.06-.09-.09,0,.03.01.09.04.18.12.42.18.74.18.95s-.11.47-.32.77c-.24.39-.36.71-.36.95,0,.33-.12.6-.36.81-.18.15-.27.33-.27.54,0,.06.01.15.04.27.03.09.04.15.04.18,0,.09-.04.14-.14.14-.06,0-.17-.01-.32-.05-.12-.06-.2-.09-.23-.09-.06,0-.09.05-.09.14l.05.05v.18c0,.21-.15.45-.45.72-.03.06-.05.11-.05.14l.09-.05c.06-.03.11-.04.14-.04.12,0,.24.06.36.18l.04.09-.14.05c-.99.57-1.49,1.04-1.49,1.4l.05.04c.15.12.23.35.23.68,0,.36-.09.59-.27.68-.09,0-.14-.06-.14-.18l.04-.23c.06-.15.09-.25.09-.32s-.02-.09-.04-.09c-.12,0-.27.17-.45.5-.18.33-.27.56-.27.68,0,.09.11.15.32.18h.41c-.66.39-.99.8-.99,1.22v.05s-.11-.17-.23-.5c-.09-.18-.15-.32-.18-.41v.27c-.03.54-.11.81-.23.81-.03,0-.08-.02-.14-.05-.03-.03-.06-.05-.09-.05-.09,0-.14.11-.14.32,0,.09.01.23.04.41.03.18.04.32.04.41,0,.27-.14.51-.41.72-.15.15-.23.27-.23.36,0,.21-.18.39-.54.54-.27.12-.41.23-.41.32,0,.03.01.06.04.09s.05.06.05.09c0,.18-.12.4-.36.66s-.44.38-.59.38h-.14s-.05.03-.05.09c0,.09.05.21.16.36.11.15.22.23.34.23.09,0,.14-.05.14-.14l-.04-.14c0-.15.03-.25.09-.29.06-.05.17-.1.32-.16.06,0,.09.03.09.09,0,.15-.11.39-.32.7-.21.32-.42.47-.63.47-.39,0-.65.18-.77.54,0,.06.01.12.04.18h.09c.15,0,.44-.06.86-.18.24-.09.39-.14.45-.14h.04c0,.12-.17.25-.52.38-.35.14-.64.2-.88.2-.21,0-.33-.08-.36-.23-.03-.09-.09-.14-.18-.14l-.14.05c-.06.06-.09.11-.09.14,0,.12.14.29.41.5.18.15.27.24.27.27l-.05.05c-.06,0-.09.06-.09.18,0,.15.06.44.18.86.09.24.15.44.18.59-.06.03-.17.08-.32.14-.39.15-.66.28-.79.39s-.2.29-.2.56c0,.09.01.23.04.41.03.21.04.35.04.41,0,.33-.24.63-.72.9-.3.15-.47.29-.5.41-.03.09-.08.14-.14.14-.09,0-.23-.11-.41-.32-.18-.21-.32-.32-.41-.32-.03,0-.05.02-.05.04,0,.09.06.23.18.41.21.24.32.48.32.72,0,.12-.03.32-.09.59-.06.24-.12.47-.18.68-.06-.15-.14-.35-.23-.59-.18-.57-.35-.86-.5-.86-.12,0-.29.13-.5.39-.21.26-.32.46-.32.61,0,.12.07.18.23.18.12,0,.29-.05.5-.14.09-.03.15-.06.18-.09-.06.06-.14.14-.23.23-.39.51-.66.77-.81.77-.06,0-.14-.06-.23-.18-.03-.06-.06-.09-.09-.09s-.04.05-.04.14c0,.06.01.18.04.36.03.24.04.41.04.5,0,.24-.15.5-.45.77-.3.27-.53.41-.68.41v-.09c.06-.06.09-.12.09-.18,0-.15-.09-.25-.27-.32-.09,0-.14.09-.14.27,0,.45.24.92.72,1.4.03.03.06.06.09.09-.24,0-.41.03-.5.09-.09.06-.17.15-.23.27-.12.24-.29.42-.5.54-.09.03-.3.26-.63.68-.66.9-1.15,1.36-1.45,1.36-.15,0-.35.36-.59,1.08-.24.75-.44,1.13-.59,1.13h-.05c-.12,0-.18.09-.18.27,0,.03.01.09.05.18v.27c0,.45-.09.68-.27.68-.09,0-.15-.07-.18-.23,0-.09-.02-.14-.05-.14s-.06.03-.09.09c-.3.42-.81.63-1.54.63.03.03.09.09.18.18.3.33.45.6.45.81,0,.27-.14.45-.41.54-.09,0-.18-.05-.27-.14,0-.03-.02-.05-.04-.05v.05s.04.11.14.23c.15.27.3.54.45.81-.03.03-.08.06-.14.09-.45.21-.68.42-.68.63,0,.03.01.07.04.14l.04.04h-.04s-.14-.06-.32-.18c-.33-.3-.56-.45-.68-.45-.06,0-.16.07-.29.2-.14.14-.2.22-.2.25l.23-.09c.09-.06.17-.09.23-.09.03,0,.05.03.05.09,0,.03-.02.09-.05.18-.03.12-.04.21-.04.27s.04.12.14.18c.15.12.23.33.23.63,0,.27-.01.41-.04.41s-.09-.07-.18-.23-.18-.29-.27-.41l-.05.41v.68s-.03.05-.09.05c-.03,0-.07-.01-.14-.05-.06-.03-.11-.04-.14-.04-.12,0-.18.15-.18.45,0,.15.01.32.05.5,0,.12-.05.18-.14.18-.03,0-.08-.01-.14-.04-.12-.06-.18-.18-.18-.36v-.27l.04-.05c0-.18-.14-.3-.41-.36-.21,0-.38.17-.5.52-.12.35-.23.88-.32,1.61-.03-.03-.08-.09-.14-.18-.18-.3-.29-.45-.32-.45v.04s.01.08.04.14c.06.21.09.38.09.5,0,.21-.15.41-.45.59-.27.18-.41.36-.41.54,0,.03.01.08.04.14.03.09.05.15.05.18,0,.12-.08.2-.23.23-.15.03-.23.11-.23.23,0,.03.01.08.04.14.03.06.05.11.05.14,0,.15-.09.23-.27.23-.15,0-.23-.08-.23-.23,0-.09.06-.24.18-.45.03-.06.04-.11.04-.14-.51.42-.77.69-.77.81v.09s.04.02.04.05c0,.09-.14.3-.41.63-.09.09-.15.17-.18.23.03-.03.09-.07.18-.14.39-.33.66-.5.81-.5.06,0,.09.05.09.14,0,.24-.12.42-.36.54-.24.12-.57.24-.99.36-.45.09-.68.18-.68.27s.14.14.41.14c.21,0,.6-.06,1.18-.18.09-.03.15-.04.18-.04-.06.06-.17.14-.32.23-.81.66-1.36,1-1.63,1h-.14l-.09-.05s-.05.02-.05.05.03.09.09.18c.21.27.32.5.32.68,0,.39-.27.63-.81.72h-.18s.09.09.27.18c.27.12.41.2.41.23s-.09.09-.27.18c-.81.42-1.22.8-1.22,1.13,0,.09-.17.44-.5,1.04-.33.6-.65.95-.95,1.04-.36.06-.54.21-.54.45,0,.06.01.14.05.23.03.12.04.2.04.23,0,.18-.12.29-.36.32-.18.03-.27.11-.27.23,0,.06.03.15.09.27.03.09.04.15.04.18,0,.03-.01.05-.04.05s-.11-.03-.23-.09c-.09-.06-.15-.09-.18-.09l-.04.05.04.09c.09.12.14.24.14.36,0,.24-.06.41-.18.5-.12.09-.32.17-.59.23-.45.15-.69.36-.72.63,0,.84-.11,1.27-.32,1.27-.03-.03-.06-.05-.09-.05h-.14c-.09,0-.14.08-.14.23,0,.06.01.18.04.36.03.12.04.21.04.27,0,.12-.04.18-.14.18-.03,0-.08-.02-.14-.05-.09-.03-.17-.05-.23-.05-.3,0-.45.11-.45.32,0,.06.04.11.14.14.18.03.27.14.27.32,0,.12-.05.18-.14.18-.03,0-.04-.01-.04-.05h-.09c-.06,0-.28.23-.65.7-.38.47-.57.72-.57.75v.18c.03.06.04.11.04.14,0,.09-.2.33-.59.72-.72.72-1.08,1.3-1.08,1.72,0,.03.01.08.04.14v.18c0,.18-.21.36-.63.54-.27.09-.41.17-.41.23,0,.03.01.06.04.09s.05.08.05.14c0,.21-.14.55-.41,1.02-.27.47-.47.7-.59.7h-.09l.14.14.04.14c0,.12-.08.29-.23.5-.21.21-.32.44-.32.68v.14s.05.06.05.09c0,.06-.05.09-.14.09h-.18c-.12,0-.3.17-.54.5-.21.39-.39.6-.54.63-.39.03-.59.08-.59.14,0,.03.03.06.09.09.15.12.23.24.23.36,0,.18-.15.56-.45,1.13-.36.72-.54,1.2-.54,1.45,0,.09.01.15.05.18.03.09.04.15.04.18l-.18-.09c-.15,0-.37.19-.66.56-.29.38-.43.67-.43.88,0,.12.03.18.09.18.09,0,.23-.09.41-.27.09-.09.15-.14.18-.14l.04.04c0,.12-.05.26-.16.41s-.25.23-.43.23h-.18c-.15,0-.27.05-.36.16-.09.11-.14.2-.14.29s.04.14.14.14c.03,0,.12-.03.27-.09.15-.06.24-.09.27-.09l.04.04c0,.06-.08.17-.25.34-.17.17-.29.25-.38.25h-.04c-.12,0-.18.08-.18.23,0,.12.06.18.18.18h.18s-.02.06-.05.09c-.3.42-.45.97-.45,1.63s.12,1.04.36,1.04c.09,0,.17-.06.23-.18.06-.12.14-.18.23-.18.12,0,.23.05.34.16.11.11.16.23.16.39,0,.12-.02.18-.04.18-.03,0-.11-.08-.23-.23-.06-.12-.11-.18-.14-.18-.09,0-.2.24-.32.72,0,.12.06.18.18.18.24,0,.63-.43,1.18-1.29.54-.86,1.19-1.98,1.94-3.37.57-1.05.89-1.6.95-1.63l2.89-4.61c0-.3.62-1.27,1.85-2.89,0-.18.38-.81,1.15-1.9s1.27-1.67,1.51-1.76h.14c0,.06-.12.21-.36.45-.78.75-1.17,1.36-1.17,1.81-.03.3-.11.45-.23.45h-.04s-.06-.05-.09-.05c-.09,0-.21.32-.36.95-.18.66-.35,1-.5,1l-.18-.05c-.06,0-.11.11-.14.32-.06.33-.2.51-.41.54-.12.06-.33.41-.63,1.04-.69,1.51-1.45,2.79-2.26,3.84-.06.18-.32.65-.77,1.4-.87,1.51-1.34,2.42-1.4,2.76-.15.48-.59,1.38-1.31,2.69-.72,1.31-1.22,1.97-1.49,1.97-.15,0-.23-.09-.23-.27,0-.03.01-.09.04-.18.03-.12.04-.2.04-.23,0-.21-.18-.48-.54-.81-.24-.24-.36-.42-.36-.54,0-.42-.18-.66-.54-.72-.18,0-.33.15-.45.45-.12.24-.24.36-.36.36h-.09c-.12,0-.18.11-.18.32v.36c0,.12-.01.18-.04.18l-.05-.05c-.06-.03-.12-.05-.18-.05-.24,0-.5.19-.77.57-.27.38-.41.75-.41,1.11v.27c0,.3-.12.5-.36.59-.12.03-.18.08-.18.14,0,.15.11.23.32.23.06,0,.12-.02.18-.05h.09s-.06.09-.18.18c-.48.45-.72.8-.72,1.04,0,.03.01.09.04.18.03.03.05.06.05.09,0,.18-.17.27-.5.27h-.59l1.31.72c-.06.03-.15.06-.27.09-.3.09-.5.17-.59.25-.09.07-.14.19-.14.34,0,.03.01.12.04.27.03.24.05.39.05.45,0,.15-.05.23-.14.23-.03,0-.09-.01-.18-.05-.12-.03-.21-.04-.27-.04-.15,0-.23.09-.23.27,0,.21.12.35.36.41.06,0,.09.02.09.05s-.15.12-.45.27c-.3.15-.45.24-.45.27s.09.08.27.14c.3.06.45.14.45.23,0,.18-.11.51-.32,1-.21.48-.39.72-.54.72-.09,0-.14.05-.14.14,0,.06.01.14.04.23v.14c0,.15-.08.33-.23.54-.18.21-.27.41-.27.59,0,.03.01.11.05.23.03.06.04.11.04.14,0,.18-.06.3-.18.36-.12.06-.3.12-.54.18-.09.03-.15.04-.18.04l.5.05h.5c-.03.06-.08.12-.14.18-.39.57-.59.95-.59,1.13,0,.03.01.04.05.04.15.09.23.75.23,1.99,0,1.75.36,2.62,1.08,2.62.18,0,.3-.25.36-.77.06-.45.17-.68.32-.68.09,0,.14-.03.14-.09,0-.03-.06-.12-.18-.27-.15-.18-.23-.33-.23-.45,0-.06.04-.11.14-.14.12-.09.18-.27.18-.54v-.27c-.03-.09-.05-.15-.05-.18,0-.42.15-.63.45-.63.27,0,.44.17.5.5,0,.06-.03.15-.09.27-.18.45-.27,1.13-.27,2.03,0,1.03.06,1.66.18,1.92s.32.38.59.38c.39,0,.6-.24.63-.72,0-1.2.12-1.81.36-1.81.09,0,.14.24.14.72,0,.33-.02.78-.05,1.36-.03.15-.04.26-.04.32,2.14,0,5.2-.78,9.17-2.35,3.98-1.57,8.09-3.78,12.34-6.64,4.34-2.92,8.6-5.58,12.79-7.96,1.2-.66,1.81-1.04,1.81-1.13,0-.15.11-.24.32-.27.57-.21,1.25-.54,2.03-.99.12-.06.44-.26.95-.59,1.78-1.05,3.33-1.96,4.66-2.71,1.33-.75,2.11-1.13,2.35-1.13h.09c.06.06.12.09.18.09l.04-.05-.04-.05v-.14c0-.15.14-.3.41-.45.27-.15.47-.23.59-.23.03,0,.05.01.05.04,0,.03-.02.09-.05.18l-.04.09s.09-.06.18-.18c.78-.78,1.45-1.18,1.99-1.18.09,0,.18.02.27.05l.05.05s.04-.02.04-.05-.02-.08-.04-.14c-.06-.09-.09-.15-.09-.18,0-.18.39-.36,1.18-.54.45-.12.8-.23,1.04-.32.24-.09.36-.23.36-.41,0-.09.05-.14.14-.14.03,0,.07.02.14.05.06.03.11.05.14.05.06,0,.11-.06.14-.18.03-.12.07-.18.14-.18l.09.05c.06.03.11.04.14.04.09,0,.2-.06.32-.18.09-.09.18-.14.27-.14h.14s.05.02.05.05c.21,0,.5-.18.86-.54.33-.3.64-.53.93-.7.29-.17.65-.25,1.11-.25.18,0,.3.06.36.18h.04s.04-.06.04-.18c.03-.39,1.03-.92,3.01-1.58s3.46-1,4.45-1c.54,0,.81.21.81.63,0,.3-.14.45-.41.45l-.36-.04c-.75,0-1.63.23-2.62.68s-2.21,1.08-3.66,1.9c-1.69.97-2.71,1.45-3.07,1.45-.06,0-.12-.03-.18-.09h-.05s.01.08.05.14c.03.06.04.11.04.14,0,.12-.07.26-.2.41s-.26.23-.38.23c-.06,0-.11-.01-.14-.04h-.04c-.06,0-.11.06-.14.18-.03.15-.08.23-.14.23h-.18c-.21,0-.45.08-.72.23-.27.15-.41.29-.41.41v.05s.04.06.04.09c0,.06-.03.09-.09.09l-.04-.04h-.14c-.15,0-.75.36-1.81,1.08-1.39.93-2.21,1.4-2.49,1.4h-.23c-.09,0-.15.08-.18.23-.03.12-.08.18-.14.18-.03,0-.08-.01-.14-.05-.06-.03-.11-.04-.14-.04-.03,0-.08.04-.14.14-.09.21-.27.32-.54.32-.33,0-.5.14-.5.41,0,.21.03.32.09.32s.24-.12.54-.36c.12-.09.21-.17.27-.23-.06.09-.15.2-.27.32-.33.39-.5.65-.5.77,0,.09.06.21.18.36.09.09.14.15.14.18,0,.06-.09.09-.27.09-.24,0-.41-.26-.5-.77-.03-.27-.09-.41-.18-.41-.15,0-.23.17-.23.5,0,.36.07.62.23.77.06.06.09.12.09.18,0,.12-.11.26-.34.41-.23.15-.43.23-.61.23-.27,0-.45-.15-.54-.45,0-.06.03-.09.09-.09s.15.05.27.14c.12.09.21.14.27.14.12,0,.21-.29.27-.86,0-.33-.08-.5-.23-.5-.06,0-.11.09-.14.27-.03.3-.14.45-.32.45-.12,0-.21-.06-.27-.18,0-.03-.02-.05-.04-.05v.23c0,.15-.21.35-.63.59-.42.21-.68.41-.77.59-.09.21-.18.32-.27.32l-.18-.09c-.15,0-.23.18-.23.54l.04.72s-.06-.03-.09-.09c-.15-.24-.3-.36-.45-.36s-.3.08-.45.23c-.15.15-.23.32-.23.5,0,.03.01.09.04.18v.14c0,.09-.04.14-.14.14h-.09c-.15-.09-.23-.21-.23-.36v-.14c0-.12-.06-.18-.18-.18h-.09c-.15.06-.32.3-.5.72-.15.36-.31.64-.47.84-.17.2-.43.29-.79.29-.12,0-.29-.05-.5-.14-.15-.09-.27-.14-.36-.14s-.14.09-.14.27c0,.06.01.17.05.32v.36c0,.33-.15.54-.45.63-.15.06-.23.14-.23.23,0,.18-.08.27-.23.27-.12,0-.18-.17-.18-.5v-.36c0-.21-.05-.32-.14-.32-.03,0-.09.15-.18.45-.09.42-.22.77-.38,1.04-.17.27-.43.41-.79.41-.12,0-.18-.06-.18-.18,0-.06.03-.15.09-.27l.05-.14s-.02-.05-.05-.05-.08.03-.14.09c-.24.15-.42.23-.54.23-.06,0-.12-.03-.18-.09l-.04-.04v.09c.06.09.09.18.09.27,0,.15-.09.33-.27.54-.15.18-.23.33-.23.45,0,.06.01.11.05.14l.04.05s-.03.04-.09.04l-.14-.04c-.12-.03-.23-.05-.32-.05-.3,0-.52.09-.65.27-.14.18-.26.42-.38.72-.09.3-.2.45-.32.45-.09,0-.14-.05-.14-.14v-.14l.05-.04c0-.09-.08-.14-.23-.14-.3,0-.62.12-.95.36-.18.15-.33.23-.45.23-.06,0-.12-.02-.18-.05s-.11-.05-.14-.05-.04.02-.04.05.01.09.04.18c.06.12.09.21.09.27,0,.12-.09.2-.27.23-.39.09-.75.32-1.08.68-.3.33-.54.5-.72.5h-.09s-.06-.05-.09-.05c-.12,0-.26.08-.43.25-.17.17-.25.31-.25.43,0,.06.01.12.04.18l.05.09s-.02.05-.05.05l-.14-.09-.14-.04c-.12,0-.18.15-.18.45,0,.12-.01.18-.04.18s-.06-.03-.09-.09c-.12-.15-.24-.23-.36-.23-.18,0-.38.11-.61.32s-.34.41-.34.59c0,.06.01.12.04.18s.05.11.05.14c0,.15-.11.23-.32.23-.27,0-.42-.11-.45-.32,0-.09-.02-.14-.05-.14-.06,0-.2.18-.41.54-.15.27-.26.41-.32.41v-.05s-.06-.04-.09-.04c-.39,0-.84.25-1.36.77-.33.3-.57.48-.72.54-.27.09-.41.2-.41.32,0,.03.01.06.05.09.03.03.04.06.04.09,0,.12-.11.23-.32.32-.33.06-.62.17-.86.32-.27.09-.48.14-.63.14h-.04c-.06,0-.21.11-.45.32-.36.36-.65.54-.86.54-.03,0-.08-.01-.14-.04-.06-.03-.11-.05-.14-.05-.12,0-.2.11-.23.32-.06.3-.24.45-.54.45-.21,0-.38.11-.5.32-.06.09-.12.14-.18.14l-.09-.05c-.06-.03-.12-.04-.18-.04-.21,0-.39.06-.54.18l-.5.27c.15-.03.3-.08.45-.14.18-.06.32-.09.41-.09.06,0,.09.03.09.09-1.66,1.02-2.52,1.54-2.58,1.54-.03,0-.06-.03-.09-.09,0-.03-.01-.04-.04-.04-.09,0-.24.09-.45.27-.33.3-.59.45-.77.45,0-.03-.02-.05-.05-.05h-.14c-.09,0-.14.08-.14.23-.03.12-.06.18-.09.18l-.09-.05c-.03-.06-.09-.09-.18-.09s-.39.12-.9.36c-1.15.57-1.99.9-2.53,1-.15.03-.24.08-.27.14-.24,0-.72.08-1.42.25-.71.17-1.06.31-1.06.43,0,.03.04.05.14.05.06,0,.23-.01.5-.05.21-.03.35-.04.41-.04h.05l-.09.04c-.15.09-.23.18-.23.27,0,.18.29.3.86.36.36,0,1.54-.3,3.53-.9,1.11-.33,1.73-.5,1.85-.5h.05c.06,0,.18-.07.36-.23.39-.33.65-.5.77-.5.09,0,.14.05.14.14,0,.03-.03.12-.09.27l-.09.09.05.04.18-.14c.27-.18.47-.27.59-.27.03,0,.06.02.09.05.03.03.06.05.09.05.03,0,.06-.06.09-.18.03-.15.08-.23.14-.23l.09.05.14.05c.06,0,.1-.05.14-.14.06-.21.2-.31.41-.31.51,0,1.79-.53,3.82-1.58,2.03-1.05,3.11-1.67,3.23-1.85.03-.03.2-.14.5-.32.72-.39,1.08-.66,1.08-.81,0-.06.06-.11.18-.14.48-.09,1.04-.39,1.67-.9.45-.33.96-.63,1.54-.9,1.08-.48,2.4-1.25,3.93-2.3.78-.57,1.66-1.14,2.62-1.72.51-.33.84-.57.99-.7.15-.14.23-.31.23-.52,0-.27.07-.41.23-.41.03,0,.07.02.14.05.09.03.15.05.18.05.18,0,.41-.15.68-.45.27-.33.5-.5.68-.5.27,0,.47-.14.59-.41.06-.15.2-.25.41-.31.36-.09.69-.33.99-.72.36-.45,1.04-.98,2.03-1.58.51-.27.87-.5,1.08-.68.48-.42,1.31-1.04,2.49-1.85.75-.51,1.3-.9,1.63-1.18.33-.27.5-.48.5-.63l-.05-.09c0-.15.07-.3.23-.45.15-.15.27-.23.36-.23.06,0,.09.03.09.09,0,.18-.11.33-.32.45-.09.03-.14.06-.14.09,0,.03.09.05.27.05.12,0,.32-.21.59-.63.27-.42.54-.76.81-1.02.27-.26.6-.39.99-.39.06,0,.12.02.18.05s.11.05.14.05c.06,0,.14-.09.23-.27.18-.45.51-.68.99-.68.42,0,.68-.09.77-.27,0-.09-.09-.14-.27-.14h-.23l-.09.04c0-.06.14-.17.41-.32.27-.15.5-.23.68-.23.03,0,.06.02.09.04h.14s.05-.01.05-.04l-.05-.05c-.03-.09-.04-.15-.04-.18,0-.21.23-.35.68-.41.12,0,.21.03.27.09h.04c.06,0,.09-.03.09-.09l-.04-.09v-.14c0-.15.17-.23.5-.23h.27c.36,0,.58-.02.65-.07.07-.04.13-.14.16-.29.06-.48.42-.9,1.08-1.27.63-.3,1.14-.65,1.54-1.04l.09-.09h.04s-.03.11-.09.23c-.18.42-.27.72-.27.9v.18l.04.05c0,.09-.56.59-1.67,1.49v-.04l.05-.14c.03-.15.04-.24.04-.27s-.02-.05-.04-.05c-.03,0-.21.17-.54.5-.66.66-1.12,1-1.36,1h-.18c-.06-.03-.11-.05-.14-.05-.12,0-.18.05-.18.14l.04.18c.03.06.04.11.04.14,0,.15-.15.29-.45.41-.36.15-.59.31-.68.5-.06.18-.17.27-.32.27l-.09-.05-.09-.05c-.06,0-.17.14-.32.41-.63.94-1.21,1.4-1.72,1.4-.12,0-.21.08-.27.23-.06.18-.15.27-.27.27-.06,0-.41.26-1.04.77-3.62,2.83-8.62,6.52-15,11.07-1.81,1.27-3.71,2.4-5.69,3.39-.75.36-1.25.63-1.49.81-.87.66-3.24,2.08-7.1,4.25-2.35,1.36-4.9,2.44-7.64,3.25Zm-18.44-36.39c0-.69,1.83-4.52,5.49-11.48,3.66-6.96,7.21-13.26,10.64-18.89,1.05-1.75,6.51-10.24,16.36-25.49,8.26-12.77,13.2-20.47,14.82-23.1.33-.48.59-.72.77-.72.21,0,.32.04.32.14,0,.12-.27.62-.81,1.49-.66,1.08-1.05,1.79-1.18,2.12-.09.6-1.15,2.41-3.16,5.42-.45.66-.68,1.01-.68,1.04,0,.09-.78,1.39-2.33,3.91s-3.33,5.35-5.33,8.5c-2,3.15-3.77,5.85-5.29,8.11-1.52,2.26-2.36,3.39-2.51,3.39h-.04l-.09-.05s-.04.02-.04.05.01.06.04.09c.03.06.05.12.05.18,0,.3-.96,1.94-2.87,4.9-1.91,2.97-2.98,4.48-3.19,4.54-.06.03-.17.23-.32.59-.45.96-.84,1.45-1.18,1.45h-.09s-.02-.04-.05-.04c-.12,0-.26.12-.41.36l.05.05s.07-.01.14-.05c.09-.06.17-.09.23-.09s.09.03.09.09c0,.36-.3.69-.9,1-.21.12-.32.21-.32.27,0,.03.01.08.04.14.03.06.05.11.05.14,0,.06-.06.11-.18.14-.12.03-.18.08-.18.14,0,.03.01.06.05.09.03.06.04.11.04.14,0,.24-.17.56-.5.97-.33.41-.57.61-.72.61h-.09l-.04-.05c-.06,0-.09.06-.09.18,0,.06.01.17.04.32.06.15.09.26.09.32,0,.09-.06.15-.18.18-.36.09-.74.53-1.13,1.31-.3.63-.65,1.16-1.04,1.58-.15.15-.23.27-.23.36,0,.03.01.06.04.09v.05c0,.09-.11.29-.32.59-.6.81-1.15,1.69-1.63,2.62-.54,1.08-.98,1.82-1.31,2.22-.15.18-.27.36-.36.54-.12.24-.41.74-.86,1.49-2.26,4.01-4.34,8-6.24,11.98-1.72,3.53-2.76,5.39-3.12,5.61-.03.03-.06.11-.09.23-.03.18-.11.27-.23.27h-.04Z"/>
    <path d="m527.05,116.18c-1.64-.6-3.26-1.75-4.86-3.44-.57-.6-1.1-1.33-1.58-2.17-.48-.84-.72-1.45-.72-1.81v-.18c.03-.09.04-.17.04-.23,0-.27-.08-.56-.23-.86-.18-.42-.33-.96-.45-1.63s-.18-1.78-.18-3.35c0-2.98.23-5.69.68-8.11.45-2.43.99-4.83,1.63-7.21.33-1.15.5-1.82.5-2.03,0-.09-.03-.14-.09-.14-.18,0-.45.57-.81,1.72-.33.97-.56,1.45-.68,1.45-.06,0-.12.24-.18.72-.06.84-.18,1.34-.36,1.49-.18.12-.27.24-.27.36,0,.39-.3,2.26-.9,5.61-.03.12-.06.72-.09,1.81-.06,1.45-.12,2.61-.18,3.48s-.14,1.31-.23,1.31-.14-.54-.14-1.63c0-3.92.44-7.82,1.31-11.71.12-.57.18-.9.18-1-.06,0-.47.44-1.22,1.31-.6.72-.92,1.08-.95,1.08l-.05-.05c.18-.27.27-.45.27-.54,0-.12-.05-.18-.14-.18-.15,0-.32.14-.5.43s-.27.53-.27.75c0,.12.03.18.09.18.03,0,.08-.02.14-.05.15-.06.24-.09.27-.09,0,.12-.24.36-.72.72,0-.03.01-.09.05-.18.03-.12.04-.2.04-.23,0-.06-.03-.09-.09-.09-.21,0-.47.19-.79.57-.32.38-.73.94-1.24,1.69-.54.78-.92,1.3-1.13,1.54-1.57,1.6-2.58,2.74-3.03,3.43-.06.09-.11.14-.14.14-.15,0-.52.26-1.11.79-.59.53-.88.84-.88.93.03,0,.11-.04.23-.14.12-.06.2-.09.23-.09,0,.06-.18.28-.54.66-.36.38-.57.56-.63.56-.03,0-.05-.01-.05-.05,0-.03.05-.11.14-.23l.05-.14c-.09,0-.26.11-.5.34-.24.23-.36.41-.36.57l.04.09c0,.18-.11.24-.32.18-.06,0-.17.14-.32.41-.24.45-.42.68-.54.68l-.05-.05.05-.14c.09-.15.14-.24.14-.27,0-.06-.02-.09-.05-.09-.18,0-.78.47-1.81,1.4-2.02,1.87-3.71,3.18-5.06,3.93-.33.18-.5.33-.5.45,0,.03.01.06.04.09.03.03.05.06.05.09,0,.12-.14.26-.41.41-.27.15-.53.23-.77.23-.12,0-.2-.02-.23-.05-.03,0-.06-.01-.09-.05-.03-.03-.06-.04-.09-.04s-.04.01-.04.04l.04.09c.03.06.05.11.05.14,0,.18-.26.34-.79.47-.53.14-1.12.2-1.79.2-.96,0-1.7-.14-2.21-.41-1.87-1.05-3.32-2.06-4.36-3.03-1.04-.97-1.79-2.02-2.24-3.16-.45-1.14-.68-2.5-.68-4.07,0-2.5.77-5.39,2.3-8.68s3.59-6.49,6.15-9.6,5.3-5.7,8.23-7.75c1.51-1.08,2.26-1.72,2.26-1.9l-.05-.05s.09.02.18.05c.12.03.21.04.27.04.24,0,.6-.21,1.08-.63.15-.15.24-.23.27-.23s.04.02.04.04l.05.05.04-.05c.9-.6,3.55-1.66,7.95-3.16l2.26.14c1.75.06,3.44.54,5.08,1.45,1.64.9,2.88,2.03,3.73,3.39.36.57.62.86.77.86.21,0,.51-.35.9-1.04.99-1.69,2.42-3.48,4.27-5.38,1.85-1.9,3.07-2.85,3.64-2.85.18,0,.27.11.27.32,0,.15-.15.24-.45.27-.3,0-1.15.7-2.53,2.1s-2.67,2.89-3.84,4.45-1.76,2.71-1.76,3.44c0,.24.06.36.18.36s.77-.69,1.94-2.08c1.78-2.11,3.37-3.85,4.79-5.22s2.64-2.06,3.66-2.06c.45,0,.89.13,1.31.38.42.26.86.6,1.31,1.02.36.33.59.5.68.5.15,0,.23.06.23.18l-.04.31c0,.27.07.44.23.5.03,0,.06-.01.09-.04.18,0,.36.18.54.54.12.27.23.41.32.41s.14-.04.14-.14c0-.06-.02-.11-.04-.14l-.05-.09c0-.12.06-.18.18-.18.18,0,.27.09.27.27,0,.12-.08.24-.23.36-.18.18-.27.35-.27.5,0,.21.07.32.23.32l.18-.05c.15,0,.26.15.32.45,0,.27-.08.41-.23.41-.03-.03-.08-.04-.14-.04-.09,0-.14.04-.14.14,0,.15.14.23.41.23.33,0,.5-.11.5-.32,0-.06-.02-.17-.04-.32-.03-.15-.05-.24-.05-.27,0-.06.01-.09.05-.09.03,0,.14.18.34.54s.29.59.29.68c0,.03-.01.04-.04.04h-.04c-.06-.03-.11-.04-.14-.04-.09,0-.24.17-.45.5-.24.36-.44.54-.59.54l-.09-.05c-.54.88-.81,1.34-.81,1.4l.04.18-.14.05s-.11-.02-.23-.05c-.12-.03-.21-.05-.27-.05-.15,0-.23.05-.23.14,0,.06.01.14.04.23.03.06.05.11.05.14,0,.18-.17.39-.5.63s-.5.44-.5.59c0,.21-.17.39-.5.54-.27.06-.45.2-.54.41-.03.09-.08.14-.14.14-.15,0-.26-.05-.32-.14-.03,0-.04.02-.04.05l.09.14c.21.36.32.63.32.81,0,.12-.03.18-.09.18-.15-.09-.23-.18-.23-.27,0-.06.01-.14.04-.23l.04-.09-.04-.04c-.24.15-.36.32-.36.5,0,.03.01.08.04.14v.05c0,.12-.2.18-.59.18-.3,0-.45.05-.45.14v.09s.04.01.04.04c0,.06-.06.11-.18.14-.12,0-.18.05-.18.14,0,.21.12.32.36.32.09,0,.17-.03.23-.09l-.14.14c-.48.57-.72.98-.72,1.22,0,.03.01.08.05.14v.05c0,.09-.05.14-.14.14-.03,0-.08-.01-.14-.05-.06-.03-.12-.04-.18-.04-.15,0-.26.06-.32.18-.03.15-.14.23-.32.23s-.35.12-.5.36c-.15.24-.23.44-.23.59,0,.03.01.05.04.05l.18-.05s-.08.14-.23.32c-.39.45-.59.75-.59.9l.09.18s-.04.06-.14.09c-.24.06-.36.2-.36.41,0,.18-.12.27-.36.27h-.32c-.15,0-.23.03-.23.09s.01.12.04.18c.03.18.14.27.32.27l.18-.04-.23.27c-.75.78-1.13,1.31-1.13,1.58,0,.3-.08.59-.23.86-.15.27-.3.41-.45.41-.12,0-.18-.04-.18-.14,0-.03.01-.07.05-.14l.04-.09c0-.06-.03-.09-.09-.09-.12,0-.25.06-.38.18-.14.12-.2.24-.2.36,0,.09.04.14.14.14.06,0,.12-.01.18-.05h.14c.15,0,.23.03.23.09s-.11.18-.32.36c-.18.18-.27.3-.27.36,0,.03.04.05.14.05.18.03.27.12.27.27,0,.12-.04.18-.14.18-.03,0-.09-.02-.18-.05l-.09-.05c-.06,0-.09.03-.09.09l.04.32c0,.3-.08.45-.23.45-.03,0-.09-.02-.18-.05l-.09-.05s.07.15.23.36c.21.24.41.48.59.72l-1.13-.63c.18.75.41,1.13.68,1.13h.04c0,.09-.06.14-.18.14-.09,0-.2-.04-.32-.14-.12-.06-.21-.09-.27-.09-.36,0-.6.38-.72,1.13,0,.09.04.21.14.36l.04.09-.04.04s-.12-.06-.27-.18c-.15-.12-.24-.18-.27-.18s-.04.04-.04.14c0,.18.03.37.09.56.06.2.15.29.27.29.03,0,.07-.01.14-.05h.09v.05c-.12.21-.29.32-.5.32-.12,0-.22.1-.29.29-.08.2-.16.5-.25.93-.18.94-.38,1.54-.59,1.81-.21.18-.36.59-.45,1.22-.06.45-.17.69-.32.72-.12.03-.18.08-.18.14h.05c.21.03.32.12.32.27,0,.03-.02.09-.05.18s-.04.17-.04.23c0,.15.11.32.32.5.09.09.14.15.14.18-.03,0-.11-.01-.23-.04-.15-.06-.26-.09-.32-.09-.09,0-.14.03-.14.09,0,.03.01.11.04.23.03.09.05.15.05.18,0,.06-.02.09-.05.09-.06,0-.11-.01-.14-.04l-.09-.05c-.06,0-.09.08-.09.23v.23c.03.18.05.32.05.41,0,.24-.08.39-.23.45-.09.06-.14.14-.14.23s.06.14.18.14c.06,0,.17-.01.32-.05.06-.03.11-.04.14-.04s.05.01.05.04c0,.03-.08.14-.23.32-.42.48-.63.81-.63,1,0,.06.04.17.14.32.18.33.27.74.27,1.22,0,.27-.06.41-.18.41s-.18-.12-.18-.36v-.14c.03-.09.05-.17.05-.23,0-.15-.05-.23-.14-.23-.12,0-.18.18-.18.54,0,.51.12,1.07.36,1.67.12.33.18.57.18.72,0,.24-.09.36-.27.36l-.41-.09s.08.14.23.32c.27.3.41.51.41.63s-.09.29-.27.5l-.09.09c.15-.09.26-.14.32-.14.15,0,.26.27.32.81,0,.21.01.36.04.45h.54c.18,0,.36.18.54.54.15.24.27.36.36.36l.05-.04c.09,0,.14.11.14.32,0,.24-.08.36-.23.36-.12,0-.2-.06-.23-.18-.06-.15-.2-.23-.41-.23-.18,0-.27.03-.27.09l.04.05s.14.12.32.27c.75.6,1.19.91,1.31.91,0-.03-.02-.08-.04-.14l-.05-.09.05.09c1.08,1.54,1.94,2.3,2.58,2.3.09,0,.14-.03.14-.09,0-.09-.18-.32-.54-.68-.51-.54-.77-.9-.77-1.08.12,0,.32.14.61.41.29.27.9.89,1.83,1.85.51,0,1.11-.02,1.81-.05.9-.03,1.72-.05,2.44-.05,1.29,0,1.94.08,1.94.23,0,.21-.45.39-1.36.54-.9.15-2.02.23-3.34.23-2.29,0-4.26-.3-5.9-.9Zm-31.46-10.6c1.61-.71,3.08-1.53,4.41-2.46,2.26-1.6,5.3-4.32,9.11-8.16s7.2-7.55,10.17-11.14c2.97-3.58,4.45-5.8,4.45-6.64,0-.36-.53-.54-1.58-.54-.54,0-1.98.23-4.32.7-2.33.47-3.5.73-3.5.79,0,.12-.6.48-1.81,1.08-2.83,1.45-5.15,2.85-6.96,4.2-1.42,1.05-3.17,2.61-5.26,4.68-2.09,2.06-3.14,3.26-3.14,3.59l-3.07,4.29c0,.06-.21.47-.63,1.22-.87,1.6-1.62,3.1-2.24,4.52-.62,1.42-.93,2.7-.93,3.84,0,.39.08.67.25.84.17.17.5.25,1.02.25,1.08,0,2.43-.36,4.05-1.06Zm30.8,6.08c0-.12-.15-.24-.45-.36l-.45-.09c.03.09.09.23.18.41.15.21.32.32.5.32.15,0,.23-.09.23-.27Zm1.2-2.33c-.08-.41-.11-.97-.11-1.69,0-1.02.09-1.64.27-1.85.12-.15.18-.39.18-.72,0-.9.2-1.79.59-2.67.12-.24.18-.39.18-.45,0-.09-.11-.14-.32-.14-.09,0-.14-.01-.14-.05.03,0,.08-.04.14-.14.24-.15.36-.29.36-.41,0-.03-.02-.08-.04-.14-.03-.03-.05-.08-.05-.14,0-.21.12-.57.36-1.08.21-.36.32-.6.32-.72s-.04-.18-.14-.18c-.03,0-.09.03-.18.09l-.14.09-.04-.04c0-.06.04-.14.11-.23s.16-.14.25-.14c.06,0,.11.02.14.05h.09c.15,0,.27-.08.36-.23,0-.09-.12-.17-.36-.23-.18,0-.27-.01-.27-.04l.04-.09c.27-.18.41-.39.41-.63s.09-.47.27-.68c.12-.12.18-.24.18-.36,0-.03-.02-.06-.04-.09v-.14c0-.15.15-.29.45-.41.24-.09.36-.2.36-.32,0-.06-.03-.15-.09-.27-.15-.24-.23-.47-.23-.68,0-.27.07-.41.23-.41h.05c.12,0,.21-.05.27-.14.09-.18.26-.38.5-.59.21-.15.32-.27.32-.36,0-.06-.03-.12-.09-.18-.15-.06-.23-.17-.23-.32,0-.03.01-.07.04-.14.03-.03.04-.06.04-.09,0-.15-.18-.38-.54-.68-.27-.27-.41-.47-.41-.59s.1-.18.32-.18c.24,0,.36.02.36.05l-.09.05c-.18.09-.27.18-.27.27,0,.12.07.22.2.29.14.08.29.11.47.11.36,0,.66-.18.9-.54.24-.36.36-.78.36-1.27,0-.36-.12-.78-.36-1.27-.03-.12-.06-.21-.09-.27.03.03.08.09.14.18.27.36.51.54.72.54s.37-.09.47-.27.2-.45.29-.81c.12-.42.24-.66.36-.72.21-.09.32-.2.32-.32,0-.03-.01-.06-.04-.09s-.04-.06-.04-.09c0-.06.07-.14.23-.23.33-.27.54-.6.63-1,.09-.45.62-1.2,1.58-2.26.21-.21.32-.33.32-.36.03-.39.35-.98.95-1.76.3-.39.45-.63.45-.72,0-.06-.02-.09-.05-.09s-.17.14-.41.41c-.3.3-.48.45-.54.45-.03,0-.05-.01-.05-.05,0-.12.07-.25.23-.41.12-.15.18-.29.18-.41,0-.06-.03-.15-.09-.27v-.09l.05.05c.03.06.06.09.09.09l.09-.09c.63-.72,1.04-1.08,1.22-1.08.03,0,.05.02.05.05s-.09.17-.27.41c-.3.39-.45.63-.45.72,0,.03.01.05.05.05.12,0,.3-.13.54-.39.24-.25.36-.5.36-.75,0-.03-.02-.07-.05-.14-.03-.09-.04-.15-.04-.18,0-.18.05-.32.16-.41s.19-.14.25-.14v.05s-.05.11-.14.23l-.09.18v.05c.09,0,.25-.11.47-.34.23-.23.34-.41.34-.57,0-.09-.03-.14-.09-.14-.03,0-.08.03-.14.09-.09.03-.15.04-.18.04-.18,0-.27-.07-.27-.23,0-.21.17-.52.5-.93.33-.41.59-.61.77-.61.09,0,.14.02.14.05s-.05.08-.14.14c-.15.12-.23.21-.23.27,0,.09.09.17.27.23.09,0,.14-.06.14-.18.03-.12.07-.18.14-.18.03,0,.05.02.05.05h.09v.04c.12,0,.18-.14.18-.41,0-.24-.11-.36-.32-.36l-.36.05c-.06,0-.09-.02-.09-.05,0-.09.24-.33.72-.72.72-.54,1.18-.98,1.36-1.31.06-.27.17-.41.32-.41.03,0,.06.02.09.05.06.03.12.04.18.04.3,0,.53-.14.68-.41.15-.27.27-.6.36-.99.09-.3.15-.45.18-.45.24,0,.48.78.72,2.35-.09.09-.23.24-.41.45-1.63,1.93-2.58,2.89-2.85,2.89h-.09l-.04-.05s-.05.02-.05.05.01.06.05.09c.03.06.04.12.04.18,0,.27-.18.64-.54,1.11s-.65.7-.86.7c-.15,0-.23.05-.23.14l.04.05v.09c0,.3-1.34,2.37-4.02,6.19-2.14,3.04-3.21,4.67-3.21,4.88-.03.06-.21.45-.54,1.17-1.51,3.1-2.35,4.99-2.53,5.65,0,.03-.02.11-.04.23-.78,2.56-1.22,3.9-1.31,4.02,0,.03-.02.06-.05.09-.18.42-.29.71-.32.86-.27,1.96-.51,3.87-.72,5.74-.06,1.06-.17,1.58-.32,1.58-.09,0-.17-.2-.25-.61Z"/>
    <path d="m539.87,117.08c-.3.3-.6.45-.9.45-.21,0-.44-.11-.68-.32-.39-.36-.87-.63-1.45-.81-.93-.3-1.56-.65-1.88-1.04-.32-.39-.47-.98-.47-1.76,0-.6.06-1.23.18-1.88.12-.65.24-.97.36-.97.03,0,.06.03.09.09,0,.06.01.09.05.09.18,0,.65-1.27,1.4-3.8,2.44-8.01,5.81-15.96,10.1-23.84,4.29-7.88,8.77-14.82,13.45-20.81,4.67-6,8.78-10.33,12.34-13.02,1.27-.93,1.9-1.51,1.9-1.72,0-.06-.06-.14-.18-.23-.09-.06-.14-.12-.14-.18s.03-.11.09-.16c.06-.05.14-.07.23-.07s.18.06.27.18c.09.09.18.14.27.14.06,0,.12-.01.18-.04.06-.06.09-.12.09-.18s-.08-.17-.23-.32l-.14-.09s.03-.04.09-.04c.03,0,.07.01.14.04h.32c.21,0,.41-.06.59-.18.18-.12.27-.25.27-.41,0-.03-.03-.09-.09-.18,0-.03.09-.06.27-.09.42-.09.8-.23,1.13-.41.51-.24,1.37-.57,2.58-1s2.08-.63,2.62-.63c.81,0,1.68.26,2.6.77.92.51,1.38,1,1.38,1.45l.27.41c1,1.39,1.49,2.23,1.49,2.53v.04s-.04.02-.04.05c0,.09.18.38.54.86.36.48.69.74.99.77.48.06.72.25.72.59,0,.21-.11.41-.34.61s-.54.32-.93.38c-1.72.3-4.34,2.03-7.86,5.2-3.53,3.16-7.32,7.16-11.39,11.98-4.07,4.82-7.73,9.7-10.98,14.64-.87,1.27-1.31,2.06-1.31,2.4,0,.06.03.09.09.09s.23-.15.5-.45c.48-.54.83-.81,1.04-.81h.14c.09.06.15.09.18.09s.05-.02.05-.05l-.05-.05v-.09c0-.33.53-.9,1.58-1.72,1.05-.81,2.41-1.79,4.07-2.94.3-.21.53-.36.68-.45,2.08-1.39,4.56-2.67,7.44-3.86,2.88-1.19,5.52-1.78,7.93-1.78,2.11,0,3.77.56,4.99,1.67,1.22,1.11,2.19,2.76,2.92,4.93,0,.99.01,1.99.04,2.98.03,1.18.05,2.61.05,4.3,0,2.77-.19,5.05-.57,6.82-.38,1.78-1.03,3.43-1.97,4.95-.93,1.52-2.33,3.25-4.2,5.18-.45.45-.68.77-.68.95v.09l.04.05-.18-.09-1.45,1c-3.83,2.62-5.86,3.93-6.1,3.93l.23-.14c3.25-2.32,5.71-4.17,7.37-5.56,2.11-1.87,3.82-4.2,5.13-7s1.97-5.17,1.97-7.1c0-.24-.02-.36-.04-.36-.06,0-.35.87-.86,2.62-1.81,5.63-5.18,10.38-10.12,14.24-1.05.81-2.44,1.75-4.16,2.8-1.72,1.05-2.73,1.58-3.03,1.58-.18,0-.42.12-.72.36-.3.21-.53.32-.68.32-.69.06-1.04.14-1.04.23l.04.09v.05c0,.06-.87.24-2.6.54-1.73.3-3.11.45-4.14.45-2.62,0-5.02-.53-7.21-1.6-2.19-1.07-4.84-2.81-7.98-5.22-.03.03-.06.08-.09.14-1.21,1.69-1.81,2.64-1.81,2.85,0,.09-.15.21-.45.36-.3.12-.45.23-.45.32v.09c0,.18-.41.75-1.22,1.72-.45.54-.68.83-.68.86,0,.03.01.05.04.05,0,.06-.17.3-.5.72-.51.66-.8,1.08-.86,1.27-.15.45-.38.83-.68,1.13Zm21.56-7.73s-.01-.11-.04-.23c-.03-.12-.04-.2-.04-.23,0-.15.23-.25.68-.32.21,0,.38-.01.5-.05.39-.15.98-.33,1.76-.54s1.24-.32,1.36-.32c.06,0,.09.02.09.05s.01.04.04.04.12-.06.27-.18c.48-.39.92-.63,1.31-.72.36-.03.6-.17.72-.41.09-.09.17-.14.23-.14s.14.01.23.04c.09.03.15.05.18.05.06,0,.09-.01.09-.05,0-.03-.02-.06-.05-.09-.03-.06-.04-.11-.04-.14,3.16-1.78,5.23-3.15,6.19-4.11.33-.33.54-.5.63-.5.03,0,.3-.23.81-.68.75-.63,1.21-.95,1.36-.95.09,0,.17-.12.23-.36.03-.3.15-.45.36-.45.15,0,.47-.3.95-.91.42-.54.69-.81.81-.81h.09s.01.04.04.04c.06,0,.11-.09.14-.27.06-.3.18-.51.36-.63.87-.54,1.94-2.02,3.21-4.43,1.27-2.41,2.12-4.53,2.58-6.37-1.24-1.66-2.29-2.49-3.16-2.49-.06,0-.14.02-.23.05h-.09c-.09,0-.14-.03-.14-.09v-.09c0-.15-.36-.23-1.08-.23-.97,0-2.08.1-3.34.29-1.26.2-1.9.37-1.9.52v.09s.04.02.04.04c0,.06-.06.09-.18.09-.03,0-.14-.03-.32-.09-.18-.06-.3-.09-.36-.09s-.09.03-.09.09c0,.03.01.08.05.14s.04.11.04.14c0,.06-.06.09-.18.09h-.27c-.39,0-.81.06-1.26.18-.45.12-.68.24-.68.36v.09c0,.06-.32.18-.95.36-.75.21-1.36.41-1.81.59s-.68.39-.68.63v.05s.04.06.04.09-.06.06-.18.09c-.36.06-.68.21-.95.45-.18.18-.3.27-.36.27,0-.03.01-.09.04-.18l.04-.09-.04-.04s-.12.09-.27.27c-.3.27-.5.41-.59.41-.06,0-.09-.07-.09-.23,0-.12.01-.23.05-.32v-.09c0-.06-.03-.09-.09-.09-.36,0-1.54.78-3.53,2.33-1.99,1.55-3.9,3.16-5.72,4.81-1.82,1.66-2.73,2.64-2.73,2.94,0,.09.04.18.14.27s.15.14.18.14l-.09-.18c-.06-.12-.09-.2-.09-.23l.05-.05.18.05c.12.09.18.18.18.27,0,.21-.18.32-.54.32h-.32c-.09-.03-.15-.05-.18-.05-.06,0-.09.02-.09.05s.03.09.09.18c.15.18.23.3.23.36,0,.15-.17.23-.5.23h-.45c-.09,0-.14.02-.14.05s.06.14.18.32c.09.12.14.2.14.23,0,.06-.09.09-.27.09-.21,0-.36-.12-.45-.36-.03-.09-.06-.14-.09-.14-.09,0-.14.06-.14.18,0,.09.06.21.18.36.09.15.14.26.14.32,0,.12-.2.35-.59.68-.42.39-.63.68-.63.86v.14h.04l-.04.05c-.06,0-.26-.14-.59-.41-.09-.09-.17-.17-.23-.23l.05.05c.12.3.18.5.18.59,0,.15-.11.29-.32.41-.18.12-.27.23-.27.32,0,.03.01.06.04.09l.05.04c0,.09-.11.14-.32.14h-.27l-.14-.05c-.09,0-.14.02-.14.05s.04.09.14.18c.12.18.18.3.18.36,0,.12-.12.18-.36.18l-.36-.05c-.09,0-.14.08-.14.23,0,.09.01.21.04.36.03.12.05.2.05.23,0,.09-.02.14-.05.14-.09,0-.23-.09-.41-.27-.12-.12-.2-.18-.23-.18v.05s.01.09.05.18c.06.06.09.12.09.18,0,.09-.09.14-.27.14-.09,0-.14.02-.14.05s.01.05.04.05c.03.03.05.08.05.14s-.12.26-.36.59c-.36.45-.54.77-.54.95,0,.39.5.91,1.49,1.56.99.65,1.54.97,1.63.97h.04s.2.04.5.14c1.33.42,2.38.63,3.16.63.69,0,1.04.06,1.04.18v.04c0,.09.35.14,1.04.14.81,0,1.67-.07,2.58-.23.33-.06.57-.09.72-.09.27,0,.5.12.68.36.03.03.06.05.09.05v-.05Zm2.85-41.49c0-.06-.03-.14-.09-.23l-.05-.09.05-.05s.12.06.27.18c.18.15.3.23.36.23.12,0,.18-.09.18-.27,0-.12-.02-.2-.04-.23v-.09c0-.15.24-.54.72-1.17.6-.84.9-1.39.9-1.63,0-.03-.02-.06-.05-.09v-.05s.01-.04.05-.04l.09.04c.09.03.17.05.23.05.09,0,.2-.06.32-.18.15-.15.29-.23.41-.23.09,0,.14.03.14.09,0,.03-.01.08-.04.14s-.04.11-.04.14c0,.18.06.27.18.27.09,0,.14-.11.14-.32,0-.48.05-.8.14-.95s.39-.42.9-.81c0-.3.33-.78.99-1.42.66-.65,1.1-.97,1.31-.97.03,0,.05.01.05.04h.04c.06,0,.11-.04.14-.14.06-.36.29-.74.68-1.13.33-.33.5-.59.5-.77,0-.03-.02-.06-.04-.09l-.05-.09s.01-.05.05-.05c.24,0,.36.12.36.36,0,.09-.03.17-.09.23l.04.05.14-.09c.66-.69,1.22-1.04,1.67-1.04.12,0,.18.05.18.14,0,.18-.11.35-.34.5-.23.15-.58.33-1.06.54-.51.24-.9.44-1.18.61-.27.17-.41.37-.41.61,0,.12.07.18.23.18.06,0,.15-.11.27-.32.18-.3.33-.45.45-.45.06,0,.09.05.09.14v.09c-.03.09-.05.15-.05.18.12,0,.66-.41,1.63-1.22.96-.81,1.45-1.3,1.45-1.45,0-.09-.11-.15-.32-.18-.24,0-.36-.06-.36-.18,0-.09.08-.18.23-.27.03,0,.12.06.27.18.21.18.38.27.5.27.15,0,.23-.11.23-.32,3.83-3.22,5.8-4.83,5.92-4.83l.04.04c.06,0,.15-.1.27-.32.21-.36.42-.54.63-.54.06,0,.17.02.32.05.06.03.11.04.14.04.03,0,.04-.01.04-.04l-.04-.09c-.03-.09-.05-.15-.05-.18,0-.18.17-.27.5-.27.03,0,.07.02.14.05h.18c.06,0,.1-.08.14-.23.03-.12.07-.18.14-.18.03,0,.07.01.14.04.06.03.11.05.14.05.03,0,.04-.01.04-.05v-.04c0-.24.42-.51,1.27-.81-.06-.03-.14-.06-.23-.09-.78-.33-1.28-.5-1.49-.5-.12,0-.18.03-.18.09v.05c.06.06.11.15.14.27l-.05.05s-.09-.03-.18-.09c-.21-.09-.41-.14-.59-.14-.45,0-.79.07-1.02.2s-.44.31-.65.52c-.18.24-.36.36-.54.36-.21,0-.32.06-.32.18l.04.05.05.09c0,.06-.09.11-.27.14-.33,0-.5.11-.5.32,0,.12-.05.18-.14.18h-.09c-.06-.03-.11-.05-.14-.05-.3,0-1.44.78-3.41,2.33-1.97,1.55-2.96,2.4-2.96,2.55l.04.09c0,.06-.11.18-.32.36-.15.18-.23.29-.23.32.03,0,.11-.03.23-.09l.09-.04s.05.01.05.04l-.05.14c-.09.12-.32.24-.68.36-.39.09-.69.23-.9.43-.21.2-.32.57-.32,1.11,0,.15-.03.23-.09.23-.45,0-.85.15-1.2.45-.35.3-.7.68-1.06,1.13-.21.3-.35.45-.41.45l-.18-.09c-.06,0-.09.06-.09.18,0,.03.01.14.05.32.06.21.09.35.09.41,0,.09-.12.18-.36.27-.24.09-.41.14-.5.14-.03,0-.05-.03-.05-.09,0-.03.01-.07.05-.14.03-.06.04-.11.04-.14,0-.06-.03-.09-.09-.09-.09,0-.19.05-.29.14-.11.09-.16.21-.16.36,0,.06.01.12.04.18v.14c0,.21-.21.47-.63.77-.3.21-.45.36-.45.45v.09l.05.04c0,.18-.36.42-1.08.72-.42.18-.63.3-.63.36,0,.03.11.06.32.09.36.03.54.08.54.14,0,.03-.03.08-.09.14-.03.06-.06.11-.09.14-.21.21-.42.32-.63.32-.12,0-.23.17-.32.5-.18.48-.41.83-.68,1.04-.24.18-.36.38-.36.59,0,.18.15.3.45.36.09,0,.14-.05.14-.14Zm3.98-7.96c.06-.03.14-.07.23-.14.51-.3.77-.51.77-.63,0-.03-.04-.07-.14-.14l-.09-.09c-.06.09-.14.18-.23.27-.12.15-.24.3-.36.45-.06.12-.12.21-.18.27Z"/>
  </g>
</svg>